<svg width="1000" height="1000" viewBox="0 0 1000 1000" fill="none" xmlns="http://www.w3.org/2000/svg">
<path d="M687.14 519.1C718.534 584.28 691.796 659.575 630.475 695.495C596.688 715.32 561.709 724.498 519.813 726.089L500.927 793L418.726 792.867L438.547 723.562C377.625 710.788 322.691 687.377 280 639.22L335.729 580.154C380.69 628.045 438.415 651.059 501.996 651.986C548.547 652.649 613.198 634.962 611.864 581.347C610.671 531.194 543.362 519.489 502.791 508.578L485.77 563.784C451.453 555.665 419.529 546.089 389.072 530.39C343.714 506.979 318.575 461.35 323.495 410.535C332.54 318.216 418.063 278.567 501.069 272.851L520.891 207L601.759 207.53L582.334 276.57C630.087 289.212 685.285 311.157 720 351.336L666.4 408.67C618.118 364.11 557.46 342.024 494.417 348.676C451.85 353.067 407.56 374.482 411.553 421.577C415.148 462.816 478.456 476.916 514.637 485.167L530.598 432.753C581.539 443.266 661.877 466.942 687.149 519.091L687.14 519.1Z" fill="white"/>
</svg>
