<svg width="1000" height="1000" viewBox="0 0 1000 1000" fill="none" xmlns="http://www.w3.org/2000/svg">
<path d="M796.873 530.312C846.674 633.754 804.257 753.25 706.981 810.257C653.383 841.719 597.893 856.286 531.43 858.81L501.471 965L371.069 964.79L402.514 854.8C305.868 834.526 218.723 797.372 151 720.947L239.406 627.207C310.731 703.211 402.304 739.735 503.167 741.207C577.014 742.258 679.573 714.189 677.457 629.1C675.565 549.506 568.788 530.929 504.428 513.614L477.426 601.227C422.986 588.342 372.344 573.144 324.029 548.23C252.073 511.076 212.193 438.661 219.998 358.016C234.347 211.503 370.018 148.579 501.695 139.508L533.14 35L661.426 35.8412L630.612 145.41C706.365 165.474 793.93 200.3 849 264.065L763.971 355.057C687.378 284.338 591.153 249.288 491.144 259.845C423.617 266.813 353.357 300.798 359.691 375.541C365.394 440.988 465.823 463.365 523.219 476.46L548.54 393.277C629.351 409.961 756.797 447.536 796.887 530.298L796.873 530.312Z" fill="white"/>
</svg>
