<?xml version="1.0" encoding="UTF-8"?>
<svg id="Layer_1" data-name="Layer 1" xmlns="http://www.w3.org/2000/svg" viewBox="0 0 1080 1080">
  <defs>
    <style>
      .cls-1 {
        fill: #606060;
      }

      .cls-2 {
        fill: #fff;
      }
    </style>
  </defs>
  <rect class="cls-2" width="1080" height="1080"/>
  <path class="cls-1" d="M751.87,561.61c35.54,73.78,5.27,159.01-64.15,199.67-38.25,22.44-77.85,32.83-125.28,34.63l-21.38,75.74-93.06-.15,22.44-78.45c-68.97-14.46-131.16-40.96-179.49-95.47l63.09-66.86c50.9,54.21,116.25,80.26,188.23,81.31,52.7.75,125.89-19.27,124.38-79.96-1.35-56.77-77.55-70.02-123.48-82.37l-19.27,62.49c-38.85-9.19-74.99-20.03-109.47-37.8-51.35-26.5-79.81-78.15-74.24-135.67,10.24-104.5,107.06-149.38,201.03-155.85l22.44-74.54,91.55.6-21.99,78.15c54.06,14.31,116.55,39.15,155.85,84.63l-60.68,64.9c-54.66-50.44-123.33-75.44-194.7-67.91-48.19,4.97-98.33,29.21-93.81,82.52,4.07,46.68,75.74,62.64,116.7,71.98l18.07-59.33c57.67,11.9,148.62,38.7,177.23,97.73Z"/>
</svg>