<?xml version="1.0" encoding="UTF-8"?>
<svg id="Layer_1" data-name="Layer 1" xmlns="http://www.w3.org/2000/svg" viewBox="0 0 2091.03 322.73">
  <defs>
    <style>
      .cls-1 {
        fill: #fff;
      }
    </style>
  </defs>
  <path class="cls-1" d="M224.26,171.88c17.29,35.9,2.56,77.37-31.21,97.15-18.61,10.92-37.88,15.97-60.96,16.85l-10.4,36.85-45.28-.07,10.92-38.17c-33.56-7.03-63.81-19.93-87.33-46.45l30.7-32.53c24.76,26.38,56.56,39.05,91.58,39.56,25.64.37,61.25-9.38,60.52-38.9-.66-27.62-37.73-34.07-60.08-40.08l-9.38,30.41c-18.9-4.47-36.49-9.74-53.26-18.39-24.98-12.89-38.83-38.02-36.12-66.01,4.98-50.85,52.09-72.68,97.81-75.83L132.68,0l44.55.29-10.7,38.02c26.3,6.96,56.71,19.05,75.83,41.18l-29.53,31.58c-26.6-24.54-60-36.71-94.73-33.04-23.44,2.42-47.84,14.21-45.64,40.15,1.98,22.71,36.85,30.48,56.78,35.02l8.79-28.87c28.06,5.79,72.31,18.83,86.23,47.55Z"/>
  <polygon class="cls-1" points="880.21 278.11 836.1 278.85 784.89 200.97 759.76 225.95 759.69 278.55 723.42 278.63 723.42 40.08 759.61 39.93 760.13 180.38 831.12 108.07 877.42 108.87 811.56 176.13 880.21 278.11"/>
  <path class="cls-1" d="M479.08,122.72c-16.05-15.02-37.8-20.66-59.64-19.71-30.41,1.39-56.56,17.66-69.9,44.98-15.31,31.36-14.29,68.65,4.32,98.32,15.83,25.13,43.37,36.85,72.53,37.15,33.04.29,62.42-15.83,76.71-47.18l-32.24-12.46c-8.35,19.27-23.15,27.11-41.03,28.35-30.04,2.12-54.29-20.22-54.66-50.92l130.12-.07c3.15-29.09-4.54-58.32-26.23-78.47ZM376.73,174.15c2.93-18.17,14.65-31.94,28.65-37.66,17.58-7.25,36.34-3.88,50.11,8.28,7.99,7.03,12.02,15.97,13.85,29.16l-92.61.22Z"/>
  <path class="cls-1" d="M674.99,130.78c-16.27-20.22-41.54-29.09-67.33-27.69-30.11,1.54-55.39,17.22-69.31,43.89-13.19,25.06-14.43,54.88-5.13,81.54,12.16,34.65,43.52,54.36,79.64,54.95,33.92.59,63.74-14.95,78.69-47.11l-31.94-12.53c-9.16,19.86-25.42,28.21-44.98,28.5-29.23.44-51.8-22.64-50.63-51.14l129.83.07c2.71-25.35-2.86-50.55-18.83-70.48ZM564.66,174.08c3.96-20.37,18.32-36.05,37.88-40.3,27.33-5.79,53.26,12.6,55.17,40.3h-93.05Z"/>
  <path class="cls-1" d="M1931.05,201.26c5.71-51.58-25.42-98.1-80.23-98.4-34.87-.15-64.69,18.76-78.17,50.92-9.89,23.81-10.33,50.48-1.61,74.88,12.53,35.24,44.69,55.1,81.47,54.73,32.97-.29,61.76-15.68,76.42-47.11l-32.24-12.31c-9.01,19.93-25.13,28.21-44.18,28.21-29.38.88-52.46-22.49-50.77-50.99l129.31.07ZM1854.27,132.76c21.17,3.08,38.1,16.78,40.81,41.25l-92.97.07c4.47-26.01,26.45-43.37,52.16-41.32Z"/>
  <path class="cls-1" d="M1451.53,114.15c-29.09-15.83-64.11-15.09-92.31,2.05-36.49,22.13-47.04,70.63-33.99,109.9,11.28,34.14,41.47,55.24,77.15,57.22,40,2.2,75.54-20.59,87.41-60,12.24-40.66-.44-88.65-38.24-109.17ZM1455.12,215.03c-6.01,20.51-23.08,34.14-41.83,36.05-20.81,2.2-40.44-7.33-50.33-26.01-8.72-16.41-9.52-35.68-4.76-53.41,5.35-20,21.98-33.63,40.44-36.56,21.32-3.37,42.05,6.23,52.09,25.06,8.94,16.78,9.96,36.05,4.4,54.88Z"/>
  <path class="cls-1" d="M1134.59,278.7l-35.83-.22-.44-108.36c-.07-11.72-6.45-24.1-15.9-29.97-20.95-12.82-48.94-3.44-58.54,19.64-4.69,11.06-5.35,22.13-5.42,33.19l-.07,85.57-35.97-.22-.07-170.05,34.07-.29,1.17,22.2c22.42-34.73,76.42-34.65,99.2-10.18,11.58,12.31,17.66,29.45,17.66,46.82l.15,111.88Z"/>
  <path class="cls-1" d="M2061.61,274.82c-39.05,18.68-97.52,6.89-112.61-38.61l31.72-12.97c9.67,29.16,48.79,37.81,68.36,22.05,4.84-3.88,6.96-11.58,5.86-17.66-4.47-25.86-58.25-17-86.6-43.3-11.5-10.62-14.21-25.94-11.14-41.54,7.55-37.51,64.03-49.67,101.47-31.43,12.75,6.23,22.64,16.34,26.3,29.53l-29.75,12.38c-5.2-9.38-10.99-15.39-20.07-18.39-18.1-6.08-43.59,0-44.11,16.78-.95,28.79,69.46,19.85,91.14,50.55,17.66,25.06,7.84,58.98-20.59,72.61Z"/>
  <path class="cls-1" d="M1748.33,232.18c-11.06,32.53-40.66,50.19-73.34,51.29-45.79,1.47-83.3-29.97-89.02-75.39-3.52-28.35,2.64-56.93,22.35-78.25,22.13-24.03,55.54-31.72,87.11-24.03,24.4,5.93,44.25,22.27,52.6,46.82l-31.58,12.6c-5.27-9.74-10.62-19.42-20.29-24.62-25.64-13.7-56.27-3.96-68.5,22.64-9.01,19.78-8.72,43.89,2.05,63.45,9.89,17.8,27.11,25.79,45.86,24.76,18.24-.95,32.9-12.75,40.96-31.36l31.8,12.09Z"/>
  <polygon class="cls-1" points="1316.21 108.43 1249.76 278.41 1211.73 278.41 1144.92 108.29 1183.89 107.85 1230.71 234.52 1278.11 108.14 1316.21 108.43"/>
  <rect class="cls-1" x="273.21" y="39.86" width="36.56" height="238.84"/>
  <rect class="cls-1" x="903.65" y="39.71" width="36.78" height="239.21"/>
  <rect class="cls-1" x="1522.45" y="107.92" width="35.9" height="170.78"/>
  <path class="cls-1" d="M1563.99,58.47c0,12.97-10.55,23.52-23.52,23.52s-23.44-10.55-23.44-23.52,10.48-23.44,23.44-23.44,23.52,10.48,23.52,23.44Z"/>
</svg>