<?xml version="1.0" encoding="UTF-8"?>
<svg id="Layer_1" data-name="Layer 1" xmlns="http://www.w3.org/2000/svg" viewBox="0 0 245.76 245.76">
  <defs>
    <style>
      .cls-1 {
        fill: none;
      }

      .cls-2 {
        fill: #f3e2af;
      }

      .cls-3 {
        fill: #835a42;
      }

      .cls-4 {
        fill: #bdbcb7;
      }

      .cls-5 {
        fill: #65412d;
      }

      .cls-6 {
        fill: #825941;
      }

      .cls-7 {
        fill: #242016;
      }

      .cls-8 {
        fill: #455258;
      }

      .cls-9 {
        fill: #afafab;
      }

      .cls-10 {
        fill: #f0e1b6;
      }

      .cls-11 {
        fill: #cda559;
      }

      .cls-12 {
        fill: #e3c785;
      }

      .cls-13 {
        fill: #4a6372;
      }

      .cls-14 {
        fill: #7e8789;
      }

      .cls-15 {
        fill: #623e2c;
      }

      .cls-16 {
        fill: #241e17;
      }

      .cls-17 {
        fill: #c4964b;
      }

      .cls-18 {
        fill: #d1a16f;
      }

      .cls-19 {
        fill: #fdfdf9;
      }

      .cls-20 {
        fill: #eac07e;
      }

      .cls-21 {
        fill: #f5f4f3;
      }

      .cls-22 {
        fill: #777;
      }

      .cls-23 {
        fill: #dcbc75;
      }

      .cls-24 {
        fill: #f1da9e;
      }

      .cls-25 {
        fill: #f1e8b7;
      }

      .cls-26 {
        fill: #3b1610;
      }

      .cls-27 {
        fill: #82827f;
      }

      .cls-28 {
        fill: #908e89;
      }

      .cls-29 {
        fill: #281f12;
      }

      .cls-30 {
        fill: #241e15;
      }

      .cls-31 {
        fill: #b78a73;
      }

      .cls-32 {
        fill: #d8ba78;
      }

      .cls-33 {
        fill: #af8769;
      }

      .cls-34 {
        fill: #241e16;
      }

      .cls-35 {
        fill: #50504f;
      }

      .cls-36 {
        fill: #a75453;
      }

      .cls-37 {
        fill: #5e2424;
      }

      .cls-38 {
        fill: #3c5869;
      }

      .cls-39 {
        fill: #d7b874;
      }

      .cls-40 {
        fill: #3e5769;
      }

      .cls-41 {
        fill: #debc90;
      }

      .cls-42 {
        fill: #4f4f4d;
      }

      .cls-43 {
        fill: #c4c3bf;
      }

      .cls-44 {
        fill: #5c3b29;
      }

      .cls-45 {
        fill: #f2f1ee;
      }

      .cls-46 {
        fill: #dfc17b;
      }

      .cls-47 {
        fill: #da7b77;
      }

      .cls-48 {
        fill: #a1a09b;
      }

      .cls-49 {
        fill: #f7f7f1;
      }

      .cls-50 {
        fill: #ca3737;
      }

      .cls-51 {
        fill: #5d3c28;
      }

      .cls-52 {
        fill: #f9f9f4;
      }

      .cls-53 {
        fill: #f3e9be;
      }

      .cls-54 {
        fill: #d5ae60;
      }

      .cls-55 {
        fill: #67412e;
      }

      .cls-56 {
        fill: #d0cfca;
      }

      .cls-57 {
        fill: #66412e;
      }

      .cls-58 {
        fill: #583726;
      }

      .cls-59 {
        fill: #b28a72;
      }

      .cls-60 {
        fill: #cdccc8;
      }

      .cls-61 {
        fill: #b08d77;
      }

      .cls-62 {
        fill: #fdfef7;
      }

      .cls-63 {
        fill: #825740;
      }

      .cls-64 {
        fill: #3e120d;
      }

      .cls-65 {
        fill: #a5804b;
      }

      .cls-66 {
        fill: #fcfdf8;
      }

      .cls-67 {
        fill: #d3ae5d;
      }

      .cls-68 {
        fill: #536d81;
      }

      .cls-69 {
        fill: #3c596a;
      }

      .cls-70 {
        fill: #57758a;
      }

      .cls-71 {
        fill: #c9a968;
      }

      .cls-72 {
        fill: #3b5768;
      }

      .cls-73 {
        fill: #55778f;
      }

      .cls-74 {
        fill: #fdfdfa;
      }

      .cls-75 {
        fill: #d9d8d4;
      }

      .cls-76 {
        fill: #2c2114;
      }

      .cls-77 {
        fill: #d4b166;
      }

      .cls-78 {
        fill: #adaba5;
      }

      .cls-79 {
        fill: #da6964;
      }

      .cls-80 {
        fill: #e7b447;
      }

      .cls-81 {
        fill: #778283;
      }

      .cls-82 {
        fill: #533725;
      }

      .cls-83 {
        fill: #fefefa;
      }

      .cls-84 {
        fill: #455c6a;
      }

      .cls-85 {
        fill: #835740;
      }

      .cls-86 {
        fill: #3b586a;
      }

      .cls-87 {
        fill: #ad8269;
      }

      .cls-88 {
        fill: #567890;
      }

      .cls-89 {
        fill: #885f47;
      }

      .cls-90 {
        fill: #c0bdb6;
      }

      .cls-91 {
        fill: #ca3838;
      }

      .cls-92 {
        fill: #cea45c;
      }

      .cls-93 {
        fill: #faf9f7;
      }

      .cls-94 {
        fill: #bebeb6;
      }

      .cls-95 {
        fill: #54554f;
      }

      .cls-96 {
        fill: #f3ebbd;
      }

      .cls-97 {
        fill: #ac874f;
      }

      .cls-98 {
        fill: #ecd491;
      }

      .cls-99 {
        fill: #ebddae;
      }

      .cls-100 {
        fill: #adada7;
      }

      .cls-101 {
        fill: #cca255;
      }

      .cls-102 {
        fill: #c8a058;
      }

      .cls-103 {
        fill: #c83737;
      }

      .cls-104 {
        fill: #95282a;
      }

      .cls-105 {
        fill: #b9b1a9;
      }

      .cls-106 {
        fill: #c0934d;
      }

      .cls-107 {
        fill: #563a29;
      }

      .cls-108 {
        fill: #e3cc90;
      }

      .cls-109 {
        fill: #7f7e79;
      }

      .cls-110 {
        fill: #bbb7b0;
      }

      .cls-111 {
        fill: #fefefc;
      }

      .cls-112 {
        fill: #d1cfc8;
      }

      .cls-113 {
        fill: #3c120d;
      }

      .cls-114 {
        fill: #eabf7c;
      }

      .cls-115 {
        fill: #debc8f;
      }

      .cls-116 {
        fill: #fcfdf7;
      }

      .cls-117 {
        fill: #f5e5be;
      }

      .cls-118 {
        fill: #b99378;
      }

      .cls-119 {
        fill: #573c2c;
      }

      .cls-120 {
        fill: #27140f;
      }

      .cls-121 {
        fill: #bebdb7;
      }

      .cls-122 {
        fill: #dc7572;
      }

      .cls-123 {
        fill: #c4c3be;
      }

      .cls-124 {
        fill: #868687;
      }

      .cls-125 {
        fill: #d57d77;
      }

      .cls-126 {
        fill: #e9d494;
      }

      .cls-127 {
        fill: #63625f;
      }

      .cls-128 {
        fill: #c7a15a;
      }

      .cls-129 {
        fill: #1f1c14;
      }

      .cls-130 {
        fill: #c1bdba;
      }

      .cls-131 {
        fill: #f7f7f2;
      }

      .cls-132 {
        fill: #c53631;
      }

      .cls-133 {
        fill: #c93536;
      }

      .cls-134 {
        fill: #3c5768;
      }

      .cls-135 {
        fill: #dcc082;
      }

      .cls-136 {
        fill: #bfbcb6;
      }

      .cls-137 {
        fill: #41525d;
      }

      .cls-138 {
        fill: #bdbbb5;
      }

      .cls-139 {
        fill: #3a130f;
      }

      .cls-140 {
        fill: #fafaf7;
      }

      .cls-141 {
        fill: #ac4740;
      }

      .cls-142 {
        fill: #cdad6b;
      }

      .cls-143 {
        fill: #241b10;
      }

      .cls-144 {
        fill: #f0dda3;
      }

      .cls-145 {
        fill: #deba6e;
      }

      .cls-146 {
        fill: #eedda7;
      }

      .cls-147 {
        fill: #65402e;
      }

      .cls-148 {
        fill: #cea75d;
      }

      .cls-149 {
        fill: #525f63;
      }

      .cls-150 {
        fill: #dc7772;
      }

      .cls-151 {
        fill: #7f8081;
      }

      .cls-152 {
        fill: #643f2c;
      }

      .cls-153 {
        fill: #caa257;
      }

      .cls-154 {
        fill: #839cb3;
      }

      .cls-155 {
        fill: #c63731;
      }

      .cls-156 {
        fill: #c23d3a;
      }

      .cls-157 {
        fill: #6f6f6e;
      }

      .cls-158 {
        fill: #381a13;
      }

      .cls-159 {
        fill: #825840;
      }

      .cls-160 {
        fill: #576e7e;
      }

      .cls-161 {
        fill: #b43632;
      }

      .cls-162 {
        fill: #f3f1ef;
      }

      .cls-163 {
        fill: #f3e1a8;
      }

      .cls-164 {
        fill: #f6f5ef;
      }

      .cls-165 {
        fill: #815942;
      }

      .cls-166 {
        fill: #84583f;
      }

      .cls-167 {
        fill: #d6ba7c;
      }

      .cls-168 {
        fill: #fdfdfd;
      }

      .cls-169 {
        fill: #9a282c;
      }

      .cls-170 {
        fill: #c89e58;
      }
    </style>
  </defs>
  <path class="cls-1" d="M108.19,186.28l.59,7.01,25.96-.16c-.04-1.79.54-3.4.24-4.86-.67-.92-1.94-1.64-2.02-3.13-6.1-2.16-12.04-5.41-16.9-9.98-11.37,5.04-2.5,7.26-7.87,11.12Z"/>
  <path class="cls-1" d="M154.97,210.44l2.46-1.03c-1.02-.08-1.99-.18-3.11-.01-.05.28.31,1.19.65,1.04Z"/>
  <path class="cls-1" d="M87.04,209.42c.1.43.2.79.57,1.18.9-.64,1.69-.97,2.65-1.21-1.17-.17-2.17-.06-3.22.03Z"/>
  <path class="cls-16" d="M201.41,159.55c-.89-.9-2.49-.67-3.55-.06-2.62,1.49-5.03,2.97-7.75,4.26-7.59,3.6-16.03,3.55-23.42-.5-2.44-1.33-4.69-2.84-6.4-5.08.54-6.21.45-12.33-.81-18.37-.16-.79-.79-1.27-.71-2.31.19-2.73-.83-5.56-.43-8.29.56-3.82.96-7.47.5-11.33-.49-4.11-2.35-7.47-4.2-11.04-.78-1.5-1.61-2.96-2.43-4.51-.54-1.01-.7-2.63-1.23-3.82-.73-1.61-.54-3.72-2.88-4.31.27-1.98.95-3.36,1.92-4.86l3.32-5.14c.79.4,5.95,4.31,6.3,3.64.43-.83-5.02-4.27-5.87-4.97,1.27-2.16,1.71-4.48,2.12-6.87l7.31,2.49c.21.07.41-.04.44-.14.37-1.06-6.35-3.39-7.69-3.69-.06-2.25-.2-4.31-.81-6.54,4.35-3,5.5-9.1,1.9-12.63-1.63-1.6-3.92-2.16-6.44-1.81-.21-4.15-.71-8.1-1.93-12.04-3.1-10.04-13.45-13.58-22.9-14.92-.47-2.32-2.74-2.82-4.43-3.19-2.96-.66-3.74,2.07-5.32,2.82-3.5,1.57-7.61,1.65-11.19,3.36-3.79,1.8-7.14,4.05-9.48,7.6-2.71,4.12-3.8,11.43-3.96,16.43-3.12-.69-6.1.69-7.57,3.5-2.03,3.9-.57,8.55,3.13,10.84-.55,2.28-.77,4.31-.82,6.55-1.01.17-8.12,2.81-7.74,3.63.09.21.29.26.54.17l7.25-2.42c.37,2.56.94,4.82,2.07,6.97-1.12.64-6.1,4.02-5.76,4.86.25.64,5.3-3.19,6.2-3.63,1.91,2.96,4.48,6.32,5.31,9.87-2.12.74-2.46,2.63-2.92,4.51-.38,1.53-2.11,2.67-.02,7.1-2.17,2.39-4.05,4.88-5.91,7.72l-37.18-3.82c-1.44-.15-2.62.04-3.47,1.08-.76.93-1.06,2.1-.63,3.44l9.19,28.66c.89,2.77,2.87,1.72,3.18,3.78.18,1.14.96,1.87,2.07,2.04l6.41.97c.61,2.2,1.94,3.9,3.93,5.02,5.94,3.36,13.34,2.27,18.6-2,1.29-.11,3.08.25,4.36.58.82.21.46,1.29.11,1.7-3.16,3.69-5.49,7.84-6.64,12.58-1,4.13.04,8.33,1.67,12.12-1.32,3.26-.02,3.16.01,5.62-2.11,1.01-3.54,2.89-5.39,4.2-1.66,1.17-3.32,2.31-4.33,4.08-3.79.09-7.58-.77-11.17-1.76-2.91-.79-8.7-2.19-11.07-.06-2.29,2.05-2.08,5.42-.35,7.84,3.92,5.46,11.86,8.66,18.57,9.6-.17,1.66-.26,6.35,3.89,7.53,3.09.88,5.01.16,6.04-.54.57.22,1.11.62,1.27,1.36.33,1.51,2.07,4.05,5.45,4.74.66.16,1.34.21,2.02.18.27,0,.47-.03.61-.06,3.6-.51,6.81-3.74,5.58-8.56-.28-1.1-.81-2.64-2.04-2.78-.86-.93-2.11-1.08-3.23-1.65l47.65.24c-.03.43-.03,1.15.2,2.11,0,.04.02.07.03.1.99,4.71,6.02,6.52,10.21,4,.52.1,1.03.27,1.52.51.35,8.48,13.41,7.86,13.39-.54,0-.99-.17-3.02-1.14-3.33-1.27-1.41-2.41-2.52-4.22-3.03,3.82-.13,7.24-.13,10.79-1.11,4.87-1.35,10.59-4.28,13.5-8.59,1.51-2.23,1.93-5.24.45-7.59-.95-1.48-2.75-2.04-4.45-2.28-4.58-.62-11.05,2.42-15.94,3.32-.94-1.13-2.24-1.66-3.29-2.57l-3.06-2.65c5.59-.02,10.68-.31,15.91-1.71,6.92-1.84,13.18-5.04,18.47-9.84,4-3.64,7.19-7.92,9.07-12.98.46-1.25.69-2.81-.27-3.79ZM156.2,114.76c2.12,6.5,1.15,13.64-2.04,19.73l-2.67-4.66c-3.02-3.37-6.38-5.99-10.81-6.84,1.57-3.66,3.71-6.79,5.74-10.11.62-1.01,1.1-1.84,2.03-2.61,1.21-1,2.57-2.16,4.12-2.45,2.07,1.95,2.84,4.52,3.63,6.93ZM123.87,135.87c.34-.91.54-1.65.67-2.44.01-.08-.05-.19-.07-.27-.09-.04-.17-.07-.25-.1-.07,0-.13.03-.16.08-.11.19-.35.43-.41.57-1.53,3.54-4.57,2.55-4.94,3.89-.25.91-.36,1.76-1.21,2.14-.65.29-1.71.67-2.35.03-.75-.76-.78-1.93-.46-2.74-.25.64,1.2-3.81.53-3.37-.83.51-1.03,1.29-1.42,1.95-.49.83-.42,1.86-.83,2.86-.32.77-1.76.79-2.25.23-.92-1.06-.86-2.26-.62-3.33.27-1.2.55-2.33,1.26-3.54-.86.14-1.15.77-1.68,1.14-1.45,2.31-1.18,3.39-3.77,5.08-.59.39-1.62.37-2.01-.23-.47-.72-.26-1.74.28-2.25.36-1.44,1.42-2.5,2.51-3.66,3.83-4.08,8.8-7.03,14.5-7.43,6.23-.44,14.1.76,19.67,3.22.45-.09,1.01.61,1.52.03-.77-.99-1.76-1.39-2.75-1.93.2-.37.34-.99.79-1.21.34-.16.69.19.91.26,4.5,1.51,8.59,4.44,10.63,9.18-3.37,6.08-9.7,8.47-16.45,6.66-4.13-1.11-7.95-2.73-11.67-4.8ZM134.92,148.57c-.38,5.61-3.36,9.65-9.18,10.79-3.48.68-6.88.54-10.26-.51-2.38-.74-4.24-2.29-5.54-4.27-.6-.92-1.19-1.87-1.49-3.27l17.68-7.14c1.34-.54,1.43-3.22,1.75-4.31,2.36.96,4.5,1.72,6.94,2.38.2.98.54,6.03.1,6.33ZM101.07,147.15l10.92-3.97c.44-.16.78-.4,1.05-.64-.14-.48-.67-.59-1.22-.67l-11.98-1.91c-.26-.04-.79.18-.94-.29-.33-.98-.62-1.9-.86-2.84.68-.05,1.08.16,1.52.18.76.05,1.57.02,2.42.3.07,1.7,1.27,2.74,2.92,2.66,1.38-.06,2.5-.71,3.55-1.65,1.99,3.99,4.89,2.11,5.14,2.14.34.04.39.49.68.68,1.92,1.24,4.5.46,5.51-1.66l4.57.66-8,2.94-7.07,2.71-8.21,3.18c-.13-.62-.07-1.15,0-1.82ZM100.69,146.05l-1.4-5,10.48,1.72-9.08,3.29ZM95.12,104.48c.56-.5,1.01.44,1.32.69,1.05.85,3.26,4.2,2.13,4.44-.25,1.55-4.04-4.31-3.45-5.13ZM95,99.46c.65-.18.76.45,1.04.68,1.54,1.21,2.38,3.05,2.09,4.98-.28-.04-.29-.32-.38-.47-1.13-1.56-2.64-3.23-2.75-5.19ZM95.84,109.21c.51.36,4.54,5.29,3.8,5.5-1.43.42-4.05-3.53-3.8-5.5ZM146.8,104.87c-.32,2.16-2.46,4.73-2.93,4.75-.17,0-.39,0-.53-.18-1.36-.61,3.91-7.63,3.46-4.57ZM143.81,104.39c.03-1.56.68-3.05,1.85-3.97.23-.46.64-1.05,1.3-.89-.35,1.69-1.25,3.04-2.25,4.14-.24.26-.32.79-.9.73ZM145.91,109.09c.23,2.59-1.42,5.13-4.13,5.72,1.07-2.15,2.7-3.82,4.13-5.72ZM142.71,116.03l-.99,1.83c-.35-.51-.14-.87-.14-1.31,0-.39.38-.67,1.13-.52ZM141.91,110.84c0-.25.2-.45.45-.45s.45.2.45.45-.2.45-.45.45-.45-.2-.45-.45ZM138.9,112.62c-.41-1.26.42-2.15.77-3.17.7-1.23,1.46-2.55,3.26-2.62-1.13,2.12-2.52,3.87-4.03,5.8ZM140.85,112.37c.2-.36.56-.23.73-.11.71.53-1.64,3.72-3.34,4.87-.34.23-.91-.03-.9-.31.03-.94.69-1.54,1.27-2.17.76-.82,1.3-1.81,2.24-2.27ZM135.58,122.09c.56-1.33,1.62-1.89,2.38-2.84.69-.86,1.31-1.77,2.45-2.09.33,1.72-2.89,5.62-4.83,4.93ZM139.11,121.98c-.33,1.05-.32,1.69-.64,2.53-.18.46-.94.35-1.17.15-.22-.19-.33-.89-.09-1.25.46-.69,1.42-.82,1.91-1.42ZM130.84,122.89c.28-.37,5.42-5.9,4.48-2.85-.26.85-2.36,3.05-2.82,3.35-.15.1-3.37-.12-1.67-.5ZM129.48,122.89c-.59.26-1.25.05-1.87-.21.89-.79,1.74-1.48,2.95-1.15-.25.7-.71,1.2-1.08,1.36ZM135.33,116.86c-.81.81-1.41,1.75-2.28,2.35-.14.38-.35.33-.37.1-.58-1.95,4.44-6.21,4.54-4.75-.38.96-1.17,1.58-1.89,2.31ZM136.94,118.31l-.48.63-.68-.52.48-.63.68.52ZM135.73,123.82c-.02.68-1.43.33-1.32-.15.13-.57,1.35-.5,1.32.15ZM137.56,113.08c-2.78-.19-6.68,4.02-6.02,7.12-2.3-.22-4.24.73-5.68,2.6-2.97-.31-5.87-.15-8.83.76-1.57-2.01-3.66-3.53-6.41-3.3.03-3.05-3.07-7.01-6.14-7.07.11-1.39-.47-2.44-.85-3.83,11.23,6.11,23.16,6.23,34.47.23-.34,1.2-.63,2.18-.55,3.49ZM104.93,125.29c.25,1.51.43,2.98.04,4.38-.54,1.93-2.18,2.87-4.21,2.28-1.11-.32-2.07-1.64-2.27-2.94-.64-3.99-1.08-7.92-1.31-11.85-.11-.88-.25-1.56-.04-2.31.95.64,2.01,1.16,3.22,1.51-.07,3.15,2.04,5.25,4.27,6.98.42.46.22,1.42.31,1.95ZM101.67,117.02c1.9,1.59,3.38,3.28,4.94,5.21-1.9.79-5.43-3.38-4.94-5.21ZM104.83,115.02l-.35-.25c-.14-.1-.01-.31.08-.3.15.03.44-.17.6-.09,1.97,1,3.68,2.69,4.24,5.1-1.92-1.08-2.89-3.23-4.58-4.46ZM106.43,123.7c.21-.07.81-.18.83.12.04.64.19,1.1.13,1.83-.02.21-.7.09-.88-.02-.31-.18-.44-1.81-.08-1.94ZM106.61,127.26c.76-.1,1.4-.12,2.28.28-.73.8-1.57,1.34-2.48,2-.08-.8.01-1.48.2-2.28ZM108.85,124.43c.71.63,1.32.81,2.04,1.3.3.21-.06.76-.3.86-.35.16-.91.07-1.19-.33-.39-.56-.99-1.11-.55-1.84ZM106.58,120.05c-.22-.29.23-.94.46-.77,1.67,1.28,3.38,2.53,4.31,4.29.11.21.48.29.13.59-1.01.88-4.68-3.16-4.9-4.11ZM111.28,121.54c1.77-.15,3.17,1.06,4.31,2.42-.89,1.2-3.84-1.34-4.31-2.42ZM104.73,116.97c-.59,1.94-4.88-3.43-4.35-4.95,1.92,1.1,3.31,2.85,4.35,4.95ZM100.93,110.02c-.6-1.05-1.57-1.74-1.89-3.18,2.46.8,4.13,3.38,4.12,5.91-1.11-.73-1.66-1.73-2.23-2.73ZM97.55,130.59c1.13,2.21,3.09,3.19,5.51,2.76-.07.79-.34,1.28-.65,2.26l-4.88-.46c-.82-2.44-1.3-2.69.02-4.57ZM121.71,138.11c.04-.64.69-.98,1.35-.78.72.21.99.51,2.1,1.03-1.11.05-2.18-.15-3.45-.25ZM156.67,133.13c.26,2.48.61,4.69.47,7.03-.04.77-1.68.95-2.32.9-1.61-.14-3.07-.88-4.31-2.01,2.33-4.19,2.84,1.93,6.16-5.92ZM151.56,104.23c.35.89.86,1.13,1,1.93-1.11.23-1.87.65-2.85,1.14.63-1.22,1.44-1.97,1.85-3.08ZM149.44,102.16l.8-1.87c.54,1.21.19,2.31-.05,3.4-.33,1.49-1.29,2.84-2.89,3.57-.39-.58,1.67-3.67,1.77-3.72-.01-.46.16-.89.37-1.38ZM148.33,96.07c1.18,1.29,1.26,3.08.45,4.47-.13.47-.21,1.08-.72,1.14-1.22.15.21-2.28-.6-5.34-.08-.29.09-.66.26-.68.29-.04.47.26.6.41ZM133.99,30.65l2.34,1.55c.33.22.65.15,1.04.6l.92,1.04c.16.18.4.05.45-.08.04-.1.07-.21.01-.35-.18-.27-.69-.29-.77-.79,1.06.07,1.75.76,2.59,1.28,2.37,1.48,4.2,3.57,5.09,6.12,2.08,3.2,3.02,10.54,2.97,14.57-1.26-.46-2.13-1.04-3.18-1.31-.83.13-1.7,0-2.52-.47-.98.22-1.78-.09-2.46-.79-.25-.26-.83-.22-.79-.65-1.04-.35-2.05-.6-3.27-.88-.82-.19-2.32-.14-2.83-.83-.35-1.09-.09-2.33-.26-3.44-.43-2.66-1.28-5.21-3.28-7.1-1.76-1.67-4.05-2.71-6.44-3.11-.73-.12-1.41.08-2.08-.4l-.1-7.02c0-.16.19-.29.25-.26,4.14.21,8.87.04,12.32,2.32ZM126.01,43.22c-.1-.04-.09-.13-.02-.2-3.9-.37-7.83-.26-11.73.04-.93.07-1.81.37-2.94.38.46-1.29,1.06-2.56,2.16-3.39,4.43-3.34,10.45-3.48,14.92-.19,1.21.89,1.89,2.26,2.33,3.63-1.74-.13-3.1-.43-4.71-.27ZM125.27,48.86l-11.22.23c-1.45.03-2.72.47-4.11.35-.11-1.47.2-2.81.58-4.14,3.85-1.07,9.95-.96,13.99-.84,1.2.04,1.88.83,2.16,1.84.23.84-.27,2.53-1.39,2.55ZM127.51,44.79c1.56.07,2.84.32,4.23.54.34,1.43.25,2.69.25,4.15-1.59.02-2.87-.17-4.5-.41.83-1.55.79-2.66.02-4.27ZM120.96,25.41c1.02.04,2.08.04,2.73,1.2l-5.39.04c.56-1.02,1.55-1.29,2.67-1.24ZM95.4,41.68c1.4-4.17,4.47-7.3,8.64-9.26-.37.59-.82,1.18-1.28,1.73.12.37.53.42.88.4.9-1.37,3.71-3.71,5.42-4.22,3.71-1.12,7.45-1.84,11.29-2.04.18.77.07,1.38.08,1.99.03,1.78.09,3.53-.02,5.55-8.33.54-12.08,5.73-11.88,13.99-2.09.68-4.13.77-6.04,1.51-.57.84-1.82.83-2.84,1.07l-1.29.3-3.57,1.07c-.33.28-.72.84-1.43.7.05-4.38.65-8.63,2.05-12.79ZM91.9,85.22c-.35-.81-1.11-1.28-1.26-2.19,3.5-2.02,7.08-3.74,10.92-4.76.8,2.44,2.86,3.43,4.81,4.45.96,1.23,1.16,3.12,2.29,4.13.47-.12.99.11,1.27-.38-3.21-4.98-.46-3.23-.39-3.05.52,1.29,1.88,3.62,3.57,2.8,1.45-.7,1.75-2.21,2.21-3.59,6.44-2.29,5.05-2.12,11.28-.08.42.93.5,1.56.95,2.36.51.9,1.73,1.95,2.79,1.22,1.77-1.21,1.76-3.69,3.49-3.11.05-.29-.03-.63.37-.86-.53-.25-1.16-.24-1.11-.7-.44.11-.96-.27-1.34.09.32.09.69-.11.98.25-1.16.05-2.14.12-3.15-.04.57-.35,1.04-.07,1.44-.21.06-.11-.11-.23-.25-.21-3.27.53-7.85-2.25-9.78-2.21-2.23.05-7.29,3.26-12.5,2.22-2.21-.44-4.34-1.44-5.53-3.46.64-.49,3.61-.63,3.33-1.44-.31-.91-3,.35-3.63-.05-.23-.25-.34-1.09-.87-.92-.59.19-.57.91-.54,1.58-3.98,1.06-7.54,2.86-11.23,4.88-1.09-2.06-1.66-4.21-1.79-6.36,5.73-1.82,11.49-2.11,17.35-1.35.4.05.78-.07.79-.4.02-.92-3.54-1.16-4.36-1.2-7.32-.43-10.12,1.16-12.94,1.28-.26.01-.54.45-.88.2-.35-4.85,1.96-9.5,4.01-13.93-.61-1.1-1.74-1.92-2.9-2.13-.91-.16-2.01.27-2.47,1.22,1.44-.03,2.52.3,3.52,1.15-1.11,1.69-1.95,3.69-2.43,5.8-1.45-.56-1.94-1.9-2.55-2.98-.74-1.32-.62-2.33-.4-3.5.36-1.85,1.48-3.26,3.17-3.96,1.87-.78,3.98-.36,5.19.91,1.24-.25,2.32-1.02,3.54-1.59,1.71-.81,3.42-1.36,5.29-1.81-.63.85-1.24,1.48-1.86,2.15-.03.42-.07,1.05.38,1.22,1.17.43,2.26-3.04,6.36-2.42.45.07,1.11.02,1.38-.23.02-.13.03-.24.05-.34.01-.61-.42-1.1-1.22-1.48,1.59-.67,3.3-.73,5.11-.97,4.3-.58,8.53-.62,12.91-.52,3.1.07,6.02.72,9.25,1.27-.55.56-.99.81-1.31,1.33.35,2.18,3.59-.76,7.1,2.98.29.31.67.63,1.03.43.35-.2.4-.66.4-1.01-.47-.95-1.33-1.52-2.1-2.45,2.75.75,5.29,1.57,7.77,2.84.58.3,1.06.71,1.67.57,1.62-1.43,3.9-1.51,5.74-.3,1.43.94,2.25,2.24,2.44,3.88.27,2.28-1.18,4.77-3.23,6.04-.58-2.23-1.12-4.09-2.47-5.73.93-1.09,2.07-1.46,3.43-1.21-.2-1.07-1.07-1.32-1.92-1.28-.14.02-.29.04-.47.05-1.14.35-2.31.88-2.85,2.18,2.12,3.84,4.4,9.43,4.03,13.82-.28.26-.73-.18-.96-.21-.57-.07-1.64-.29-2.35-.44-4.7-1.01-9.48-1.25-14.16-.29-.41.08-.68.42-.64.67.04.25.28.44.63.41,7.4-.63,10.36-.59,17.55,1.31-.24,2.35-.8,4.32-1.77,6.45-3.63-2-7.21-3.77-11.16-4.93-.21-.5-.14-.96-.41-1.3-.21-.26-.67-.15-.85-.04-.16.09-.23.55-.4.71-.7.3-3.39-.88-3.52.04-.13.91,2.79.9,3.28,1.51-.71.64-1.12,1.59-1.77,1.95.31.44.37,1.1.97,1.17.99-.7,1.68-1.65,2.28-2.8,3.94,1.12,7.43,2.77,10.86,4.75-.19.89-.84,1.34-1.16,2-1.22,2.54-2.82,4.71-3.62,7.36-.64,2.12-.94,4.23-1.2,6.44-1.38,1-2.23,2.56-2.48,4.24-.15,1.02-.51,1.35-1.26,1.94-1.22.95-2.3,2.04-3.71,2.56-.36.27-.71.68-1.19.93-10.26,5.42-23.18,5.29-32.87-1.01-1.43-.93-3.56-1.76-4.39-3.4-.94-1.86-1.04-4.18-3.11-5.38.24-3.57-.8-6.82-2.38-9.89-.66-1.29-1.58-2.34-2.12-3.59ZM110.59,83.3l3.29-.33c-.09.68-.37,1.92-1.28,2.09-1,.19-1.63-1.04-2.01-1.76ZM128.01,82.92l3.2.32c-.2.67-.9,1.9-1.77,1.82-.92-.09-1.27-1.39-1.43-2.14ZM94.07,95.76c.75-.7.67.99.08,2.24-.49,1.03.72,2.9-.04,3.4-.16.1-.48.15-.72,0-.17-.11-.18-.39-.27-.61-.8-1.85-.67-4,.95-5.02ZM91.7,100.45c.41.92.85,1.81,1.18,2.76.51,1.47,1.56,2.48,1.97,4.14-1.61-.48-2.48-1.9-2.98-3.26-.53-1.19-.72-2.44-.17-3.64ZM92.09,107.31l2.52,1.44c-.47,1.46.69,2.65.77,3.96.26,4.16.41,8.27.91,12.35.21,1.7.44,3.32-.35,4.9l-2.29-7.75-1.8-5.29c-.67-2.02-2.33-3.14-4.66-3.34,1.51-2.24,3.06-4.31,4.9-6.26ZM64.49,147.88l-5.23-.72c-.87-.12-1.48-.59-1.49-1.48,2.26.51,4.33.61,6.53.95.41.06.4.63.19,1.25ZM65.02,145.11l-7.88-1.1c-.61-.09-1.17-.3-1.46-.73-.68-.39-.95-.97-1.19-1.71l-9.01-28.19c-.31-.98.37-2.27,1.36-2.17l40.57,4.12c1.39.14,2.46.87,2.82,2.03l6.32,20.08c1.03,3.27,2.01,6.37,2.84,9.68.23.93-.21,1.73-1,1.91-.28.06-.38.25-.7.21l-16.68-2.16c-1.12-2.2-2.55-3.22-4.93-2.35-.81-.91-1.65-1.95-2.84-2.1-1.26-.16-2.38.43-3.36,1.33-.6-.52-1.19-1.07-2-1.05-1.37.04-2.36.96-2.86,2.2ZM79.17,154.54c-4.14.92-9.77-.2-12-3.85-.1-.16-.13-.34-.21-.5-.72-1.42-1.12-4.03.45-5.18.37-.27.7-.49,1.14-.07,1.14,1.09-.07,2.19,1.05,5.04.1.24.32.51.46.66.17.18.51.07.68.06-.24-1.58-.51-3.36.12-4.9.4-.98,1.35-1.61,2.17-1.43,2.92.66.78,4.23,2.08,7.01.23,0,.46-.1.67-.18-.01-1.06.01-4.71,1.44-5,1.85-.37,2.54,2.46,2.67,3.79l.73,1.77c1.46.14,2.79,0,4.33.34-1.76,1.1-3.65,1.97-5.77,2.44ZM81.66,150.15c-.25-.51-.32-1-.25-1.44l16.76,2.11c.87.11,2.08-.23,2.9-.54l24.88-9.33c.1.56,0,1.59-.69,1.86l-22.3,8.88c-1.08.43-2.2.92-3.38.77l-17.93-2.31ZM92.79,156.2c.63.28.52.99.8,1.24.77.69,1.09,1.7,2.22,2.22-.31-1.26-.71-2.17-1.02-3.16-.3-.97-.77-1.91-.86-3.07l2.7.29c1.49.16,3.11.82,4.59.28l6.16-2.24c.45,1.11.78,2.19,1.34,3.1,1.89,3.1,4.99,5.04,8.7,5.67,5.51.94,12.24.38,15.95-4.33,1.81-2.3,2.44-5.07,2.7-7.83l.03-5.8c4.67,1.13,9.33.21,13.05-2.62.92.76,1.65,1.45,2.51,1.92.8.44,1.76.62,2.64.73,1.21.15,2.44-.08,3.7-.82,1.39,7.43.24,14.71-.22,22.16l-.53,8.68c-.16,2.66-.92,5.2-2.23,7.53-1.01-.3-1.92-.86-2.88-.85-3.18.05-9.44.74-8.87,5.31.08.62.43,1.22.29,1.95-2.04.67-4.38.87-6.42.46-2.05-.42-2.6-1.81-2.55-3.66.11-3.84-4.27-8.81-7.7-9.49-4.73-.93-5.06,0-10.27-1.5-2.36-.68-4.55-1.67-7.01-2.13,1.35,1.94,3.5,2.16,5.21,3.52-3.35,1.5-7.8,4.21-6.63,8.21.36,1.22-.08,2.63-1.36,3.15-2.22.91-4.84.82-7.17.14l.27-2.31c.51-4.25-6.99-5.28-10.48-4.61-.33.06-.64.18-1.15.22-3.88-8.4-.76-15.48,4.48-22.35ZM144.94,189.34c.48.73.5,1.78,1.18,2.22,3,1.91.94.7,3.7,2.89-.98,1.33-1.3,2.78-1.88,4.32l-6.35-2.02c-1-.38-5.2-1.51-5.15-2.58.09-1.79.46-3.47.44-5.42,1.14.29,5.68,0,6.24-.29.46-.25.84-.35,1.3-.13.39.19.3.69.52,1.02ZM145.07,183.46c.29-1.09,1.55-1.66,2.5-1.75,2.08-.72,4.33-.81,6.39-.21,1.95.56.8,3.2.61,4.51-.49.54-1.26.14-1.93.18-2.42.16-4.49,1.14-6.66,2.19-.84-1.5-1.36-3.25-.91-4.92ZM147.74,190.95c-.4-.14-1.12-.44-1.08-1.09.04-.59.8-.74,1.2-.92,1.65-1.06,6.76-2.27,8.37-.55-2.46.17-4.77.61-6.92,1.72-.62.32-.89,1.09-1.57.85ZM116.06,175.16c4.86,4.57,10.8,7.82,16.9,9.98.08,1.49,1.35,2.21,2.02,3.13.3,1.46-.28,3.07-.24,4.86l-25.96.16-.59-7.01c5.37-3.86-3.5-6.08,7.87-11.12ZM118.24,174.74c1.34-.16,2.48.25,3.73.41,3.57.47,6.82-.41,9.8,5.1.5.93,1.16,1.72,1.11,2.97-5.39-1.9-10.32-4.65-14.63-8.48ZM89.34,180.06c2.18-.4,4.49-.34,6.46.47.9.37,2.06.69,2.33,1.69.45,1.67-.03,3.54-1.09,4.87-2.38-1.68-4.98-2.32-7.77-1.99-.25.03-.56-.04-.68-.17-.06-.07-.04-.24-.04-.35-.4-1.35-1.37-4.12.79-4.51ZM95.5,187.74c.49.32,1.45.71.92,1.35-.76.93-2.22.37-2.84-.45-2.15-1.04-4.28-1.42-6.7-1.5,1.82-1.76,6.64-.67,8.62.6ZM95.43,191.14c1-.52,1.48-.62,2-1.51.25-1,.66-2.01,1.49-2.77,2.54.61,5.11.7,7.61-.03l.12,2.63c.06,1.41.35,2.74.41,4.21-2.03.93-4.04,1.58-6.07,2.17-1.89.55-3.78,1.11-5.81,1.48l-.88-2.4c-.3-.82-.68-1.14-1.33-1.99,1.56.14,1.8-1.45,2.46-1.8ZM93.12,190.1c.36.24,1.03.15.92.72-.11.58-.77.94-1.28.99-.5.04-.97-.18-1.26-.59-2.48-1.23-4.95-1.88-7.79-1.58,1.92-2.34,7.5-.8,9.41.47ZM82.23,191.2c4.6-1.39,10.91.98,11.63,6.43-4.31.91-12.1,1.05-15.76-1.37.34-2.2,1.86-4.38,4.13-5.06ZM78.05,197.71c6.96,2.87,14.66,1.75,21.52-.17.13-.05.23-.08.31-.1,2.46-.77,4.76-1.48,7.07-2.66.28,1.37-.3,2.34-1.34,2.81-2.6,1.16-5.3,1.71-7.87,2.58-5.83,1.96-12.01,2.06-17.85.52-1.42-.37-2.25-1.4-1.83-2.98ZM57.45,192.38c2.71-.38,5.3.2,7.93.96,3.61,1.05,7.11,1.74,11.07,1.79-.57,2.36-.55,6.16,2.33,6.98,10.42,2.95,17.52.82,27.28-2.83,1.67-.79,2.68-1.98,2.6-4.29l25.89-.11c.13,4.11.6,4.97,4.75,6.37l9.52,3.21-63.34.14c-3.3,0-6.18.18-9.43-.09-6.72-.55-13.03-2.73-18.39-6.8-1.06-.81-2.19-1.99-2.41-3.3-.2-1.19,1.21-1.9,2.2-2.04ZM81.58,213.98c-1.57.98-3.35.81-4.69-.08-1.43-.95-1.85-2.75-1.5-4.51.95-.1,1.79-.12,2.73.08-.85,3.2,1.64,3.16,3.45,4.51ZM85.24,213.97l-4.91-2.68c-.35-.19-.68-.49-.77-.75-.09-.25-.05-1.05.25-1.09,1.78-.23,3.52-.05,5.41-.13l1.16,2.3-1.14,2.35ZM95.41,213.42c.97,1.79.63,4-.82,5.43-1.45,1.42-3.67,1.72-5.44.72s-2.67-3.05-2.2-5.02c.4-1.71,1.75-3.04,3.47-3.41,1.99-.43,4.02.5,4.99,2.29ZM87.04,209.42c1.05-.09,2.05-.2,3.22-.03-.96.24-1.75.57-2.65,1.21-.37-.39-.47-.75-.57-1.18ZM148.92,214.14c-1.16.52-2.61.77-3.8.26-1.93-.83-2.87-3.01-2.55-5.02,1-.14,1.85-.09,2.84-.05-.69,3.61,2.3,3.24,3.51,4.82ZM152.6,214.01l-4.89-2.46c-.65-.33-1.32-1.61-.67-2.08,1.74-.37,3.67,0,5.48-.14.52.9.89,1.56,1.27,2.52-.55.72-.86,1.41-1.2,2.16ZM162.29,212.59c1.27,1.48,1.47,3.6.49,5.29-.98,1.69-2.91,2.57-4.83,2.21-1.91-.36-3.39-1.9-3.68-3.83-.03-.11-.03-.23-.02-.37-.14-1.98,1.01-3.85,2.89-4.58,1.82-.71,3.88-.19,5.15,1.28ZM154.32,209.4c1.12-.17,2.09-.07,3.11.01l-2.46,1.03c-.34.15-.7-.76-.65-1.04ZM181.04,200.99c-5.11,4.53-11.73,6.51-18.63,6.52l-73.09.09-12.29-.02c-5.15,0-10.03-1.32-14.56-3.69-1.77-.93-6.82-4.37-6.91-6.46,2.88,3.09,8.56,5.73,12.5,6.91,4.57,1.36,9.01,1.6,13.81,1.59l45.9-.1,33.72-.12c8.47-.03,16.12-2.52,22.12-8.41-.38,1.53-1.39,2.66-2.56,3.7ZM165.74,194.59l9.39-2.61c2.45-.68,7.61-1.23,8.64,1.46.32.82-.03,1.67-.54,2.31-2.23,2.79-5.16,4.55-8.41,6.02-3.99,1.8-8.17,2.9-12.54,2.4,1.33-.48,3.06-.53,3.72-1.93,1.12-2.35.8-5.17-.25-7.65ZM164.55,201.14c-.23.42-.9.86-1.59,1.04-5.61,1.49-11.62,1.3-17.04-.55l-8-2.81c-1.14-.4-1.68-1.53-1.32-2.71,2.01.8,3.96,1.75,5.96,2.36,1.94.59,3.74,1.07,5.63,1.54,4.18,1.05,12.67,1.45,16.48-.86.25.59.18,1.41-.12,1.98ZM164.73,197.62c-2.43,2.57-12.26,2.19-15.63,1.39.96-5.57,7.31-8.09,11.98-6.33,2.11.8,3.65,2.78,3.64,4.94ZM159.14,190.87c-2.78-.16-5.11.52-7.41,1.6-.58.27-.84.94-1.53.59-.38-.19-1.17-.4-1.19-1.06-.01-.38.56-.51.74-.65,2.01-1.2,7.55-2.74,9.39-.48ZM200.37,161.74c-.62,2.46-1.86,4.52-3.24,6.59-8.93,13.37-24.97,18.68-40.63,17.69.35-1.64.62-3.05.17-4.58.81-2.34,1.84-4.55,2.19-6.91.47-3.2.57-6.16.6-9.24,0-.83.01-1.67.33-2.31.1-.81.09-1.42.33-2.2,8.3,7.64,20.15,9.52,30.42,4.77,2.24-1.03,4.21-2.21,6.34-3.48.52-.31,1.01-.65,1.55-.7.43-.65,1.12-.63,1.67-.57.48.05.35.64.28.94Z"/>
  <path class="cls-16" d="M88.54,184.57c.06.06.13.1.2.13-.07-.04-.14-.08-.2-.13Z"/>
  <path class="cls-62" d="M149.1,199c3.36.8,13.19,1.19,15.63-1.39,0-2.17-1.53-4.15-3.64-4.94-4.67-1.76-11.02.75-11.98,6.33Z"/>
  <path class="cls-116" d="M93.86,197.63c-.72-5.46-7.03-7.82-11.63-6.43-2.27.69-3.8,2.86-4.13,5.06,3.66,2.43,11.45,2.28,15.76,1.37Z"/>
  <path class="cls-132" d="M94.3,194.92l.88,2.4c2.03-.37,3.92-.93,5.81-1.48,1.91-2.28,2.66-3.9,2.11-7.08-1.59-.26-2.76-.67-4.28-1.38-.26.97-1.01,1.61-1.38,2.24-.52.88-1,.99-2,1.51-.67.35-.91,1.94-2.46,1.8.66.85,1.03,1.17,1.33,1.99Z"/>
  <path class="cls-155" d="M142.93,189.5c-.89.26-2.22-.04-2.94.71-.7.72-.36,2.27.03,3.12l1.57,3.41,6.35,2.02c.58-1.54.9-2.99,1.88-4.32-2.76-2.19-.7-.98-3.7-2.89-.69-.44-.7-1.49-1.18-2.22-.63-.2-1.26-.05-2,.16Z"/>
  <path class="cls-55" d="M79.88,149.99c-.17.25-.39-.1-.8-.28-.69,1.27-2.13,2.44-3.31,1.48-.21.08-.44.18-.67.18-1.46-.01-3.1.09-4.36-.68-.17.01-.51.12-.68-.06-.14-.15-.37-.42-.46-.66-.68.91-2-.53-2.44.71,2.23,3.65,7.86,4.77,12,3.85,2.12-.47,4.01-1.34,5.77-2.44-1.54-.34-2.87-.19-4.33-.34l-.73-1.77Z"/>
  <path class="cls-56" d="M99.58,197.53c.11-.03.21-.07.31-.1-.08.02-.18.05-.31.1Z"/>
  <path class="cls-56" d="M79.89,200.68c5.84,1.54,12.02,1.44,17.85-.52,0-.38,2.73-2.8,1.84-2.62-6.86,1.93-14.56,3.04-21.52.17-.42,1.57.41,2.6,1.83,2.98Z"/>
  <path class="cls-112" d="M148.19,200.02c-1.89-.47-3.7-.95-5.63-1.54.73,1.06,2.57,1.97,3.36,3.15,5.41,1.86,11.43,2.04,17.04.55.69-.18,1.36-.62,1.59-1.04.31-.57.37-1.39.12-1.98-3.82,2.32-12.3,1.91-16.48.86Z"/>
  <path class="cls-19" d="M90.05,184.64c3.1-.46,5.34,1.51,6.07-.91.35-1.15.06-2.18-.32-3.21-1.97-.8-4.28-.86-6.46-.47-2.17.39-1.19,3.17-.79,4.51.06.06.13.09.2.13.38.18.83,0,1.31-.06Z"/>
  <path class="cls-66" d="M147.15,185.32c.61,1.51,4.96-.13,7.42.69.19-1.32,1.34-3.95-.61-4.51-2.06-.59-4.3-.5-6.39.21-.5,1.08-.92,2.38-.42,3.61Z"/>
  <path class="cls-104" d="M103.09,188.77c.56,3.18-.2,4.8-2.11,7.08,2.03-.6,4.04-1.25,6.07-2.17-.06-1.47-.34-2.8-.41-4.21l-.12-2.63c-2.5.73-5.07.64-7.61.03-.83.76-1.24,1.76-1.49,2.77.37-.63,1.12-1.27,1.38-2.24,1.52.7,2.69,1.11,4.28,1.38Z"/>
  <path class="cls-169" d="M144.42,188.32c-.46-.23-.84-.12-1.3.13-.55.3-5.09.58-6.24.29.03,1.95-.35,3.63-.44,5.42-.05,1.07,4.15,2.2,5.15,2.58l-1.57-3.41c-.39-.85-.73-2.4-.03-3.12.72-.75,2.05-.45,2.94-.71.75-.22,1.38-.37,2-.16-.22-.33-.13-.82-.52-1.02Z"/>
  <path class="cls-165" d="M73.03,144.36c-.82-.18-1.77.45-2.17,1.43-.63,1.54-.36,3.32-.12,4.9,1.26.77,2.89.67,4.36.68-1.29-2.78.85-6.35-2.08-7.01Z"/>
  <path class="cls-100" d="M97.74,200.16c2.58-.87,5.28-1.42,7.87-2.58,1.04-.47,1.62-1.43,1.34-2.81-2.3,1.18-4.61,1.89-7.07,2.66-.11.03-.21.07-.31.1.89-.18-1.85,2.24-1.84,2.62Z"/>
  <path class="cls-136" d="M152.64,186.19c.67-.05,1.44.36,1.93-.18-2.46-.82-6.81.82-7.42-.69-.5-1.24-.08-2.54.42-3.61-.95.09-2.21.66-2.5,1.75-.45,1.67.08,3.42.91,4.92,2.17-1.05,4.24-2.02,6.66-2.19Z"/>
  <path class="cls-78" d="M142.56,198.48c-2-.61-3.95-1.56-5.96-2.36-.36,1.18.18,2.31,1.32,2.71l8,2.81c-.79-1.18-2.63-2.09-3.36-3.15Z"/>
  <path class="cls-4" d="M88.58,184.92c.12.13.42.2.68.17,2.79-.32,5.39.31,7.77,1.99,1.07-1.33,1.55-3.2,1.09-4.87-.27-1-1.43-1.33-2.33-1.69.38,1.03.67,2.06.32,3.21-.74,2.41-2.97.45-6.07.91-.48.07-.93.25-1.31.06-.07-.03-.13-.07-.2-.13,0,.11-.02.28.04.35Z"/>
  <path class="cls-6" d="M79.08,149.71c.41.17.63.52.8.28-.12-1.34-.82-4.17-2.67-3.79-1.43.29-1.45,3.94-1.44,5,1.18.96,2.62-.2,3.31-1.48Z"/>
  <path class="cls-52" d="M91.51,191.22c.51-.42,1.2-.59,1.62-1.12-1.91-1.27-7.49-2.81-9.41-.47,2.85-.29,5.31.36,7.79,1.58Z"/>
  <path class="cls-49" d="M149.74,191.34c.65.41,1.46.55,1.98,1.12,2.3-1.08,4.63-1.76,7.41-1.6-1.84-2.27-7.38-.72-9.39.48Z"/>
  <path class="cls-89" d="M69.6,149.97c-1.12-2.85.09-3.95-1.05-5.04-.44-.42-.77-.2-1.14.07-.44,1.29.08,5.2-.45,5.18.08.16.11.35.21.5.44-1.24,1.76.19,2.44-.71Z"/>
  <path class="cls-164" d="M93.58,188.64c.7-.09,1.42-.4,1.92-.9-1.98-1.27-6.79-2.36-8.62-.6,2.42.08,4.55.46,6.7,1.5Z"/>
  <path class="cls-131" d="M149.31,190.1c2.14-1.11,4.46-1.55,6.92-1.72-1.61-1.72-6.72-.51-8.37.55.41.47.82,1.01,1.45,1.16Z"/>
  <path class="cls-57" d="M110.11,135.37c-.24,1.07-.3,2.27.62,3.33.49.56,1.93.54,2.25-.23.41-1,.34-2.03.83-2.86-1,2.08-4.27,2.9-3.69-.24Z"/>
  <path class="cls-61" d="M67.41,145.01c-1.57,1.15-1.18,3.76-.45,5.18.53.03.01-3.89.45-5.18Z"/>
  <path class="cls-130" d="M96.43,189.09c.52-.64-.43-1.03-.92-1.35-.5.5-1.22.81-1.92.9.62.81,2.08,1.38,2.84.45Z"/>
  <path class="cls-110" d="M147.86,188.94c-.4.18-1.16.33-1.2.92-.04.65.68.95,1.08,1.09.68.24.95-.53,1.57-.85-.63-.15-1.04-.69-1.45-1.16Z"/>
  <path class="cls-138" d="M149,191.99c.02.67.81.87,1.19,1.06.69.35.95-.32,1.53-.59-.52-.57-1.33-.71-1.98-1.12-.19.14-.75.27-.74.65Z"/>
  <path class="cls-105" d="M92.76,191.81c.51-.04,1.17-.41,1.28-.99.11-.57-.57-.48-.92-.72-.42.53-1.11.7-1.62,1.12.29.42.76.63,1.26.59Z"/>
  <path class="cls-85" d="M108.48,53.67c-.02.1-.03.22-.05.34.03-.12.05-.23.05-.34Z"/>
  <path class="cls-85" d="M153.08,58.05c-.16,0-.31.02-.47.05.18,0,.32-.03.47-.05Z"/>
  <path class="cls-85" d="M98.97,69.1c1.3.26,2.85.58,3.95,1.16-2.3-1.47-3.45-3.85-3.18-6.66.35-3.69,3.48-6.42,7.24-5.68,2.39.47,4.03,2.45,4.54,4.76.66,2.99-.51,5.68-2.82,7.43,1.69-.2,2.31-1,3.78-1.49,2.34-4.52,13.57-4.44,16.61-.71.52.64.12,1.55.28,2.2.14-.46.28-.74.28-1.61,1.08.74,2.31.87,3.24,1.4-3.14-2.55-3.51-7.42-.75-10.39,1.75-1.89,4.08-2.24,6.3-1.23,1.92.87,3.13,2.32,3.64,4.37.74,2.96-.4,5.61-2.67,7.48.89-.04,1.66-.51,2.63-.8,4.14-1.22,8.96.7,10.77,4.55.23.03.69.47.96.21.36-4.38-1.92-9.98-4.03-13.82.54-1.3,1.71-1.83,2.85-2.18.5-.15,1.02-.42,1.49-.66-2.48-1.28-2.32-.05-5.01-.54-1.58-.28-3.14.51-6.31-1.17-.37-.2-.77-.25-1.03-.03,0,.36-.05.82-.4,1.01-.36.2-.74-.13-1.03-.43-3.5-3.74-6.75-.8-7.1-2.98-7.67-.99-15.45-.99-23.24-.21-.8.08-1.22.37-1.55.94-.27.25-.93.29-1.38.23-4.1-.62-5.19,2.85-6.36,2.42-.45-.17-.42-.8-.38-1.22-2.36.43-4.1,1.43-6.77,1.46-1.38.89-2.71-.63-5,.23.23-.01.49-.04.64.17-.18.18-.49.45-.28.54.14.06.29.11.39.21,1.16.2,2.29,1.03,2.9,2.13-2.05,4.43-4.36,9.07-4.01,13.93.34.24.62-.19.88-.2,1.95-3.43,5.84-5.64,9.91-4.81Z"/>
  <path class="cls-115" d="M139.04,77.96c-.49-.61-3.41-.6-3.28-1.51.13-.92,2.82.26,3.52-.04.17-.16.24-.62.4-.71.18-.1.64-.22.85.04.27.34.2.81.41,1.3,3.95,1.16,7.52,2.93,11.16,4.93.97-2.13,1.53-4.1,1.77-6.45-7.19-1.9-10.15-1.94-17.55-1.31-.35.03-.59-.16-.63-.41-.04-.24.23-.58.64-.67,4.68-.95,9.46-.72,14.16.29.71.15,1.78.38,2.35.44-1.82-3.85-6.63-5.77-10.77-4.55-.97.29-1.74.76-2.63.8-2.12,1.21-4.46.95-6.52-.23-.93-.54-2.16-.66-3.24-1.4,0,.87-.14,1.15-.28,1.61-.18.58-.2,1.14-.68,1.79-1.67,2.27-4.26,4.21-7.28,4.35-4.08.19-9.38-3.55-8.93-7.62-1.47.49-2.09,1.28-3.78,1.49-1.84,1.16-3.95,1.12-5.79.15-1.1-.58-2.66-.9-3.95-1.16-4.07-.83-7.96,1.38-9.91,4.81,2.82-.12,5.63-1.7,12.94-1.28.82.05,4.38.28,4.36,1.2,0,.33-.39.45-.79.4-5.85-.76-11.62-.47-17.35,1.35.12,2.16.7,4.31,1.79,6.36,3.7-2.01,7.25-3.82,11.23-4.88-.02-.68-.04-1.39.54-1.58.53-.17.63.67.87.92.63.4,3.32-.86,3.63.05.28.82-2.69.95-3.33,1.44,1.2,2.02,3.32,3.02,5.53,3.46,5.22,1.05,10.27-2.17,12.5-2.22,1.93-.04,6.51,2.74,9.78,2.21.14-.02.31.09.25.21.36.02.55-.05.72,0,.37-.37.89.02,1.34-.09,1.44-.37,2.87-.82,4.18-1.55.65-.36,1.06-1.31,1.77-1.95Z"/>
  <path class="cls-50" d="M141.91,44.86c-.8-4.64-1.18-7.39-4.18-11.01.07.27-.14.22-.35.14l-5.36-2.08c-3.32-1.29-6.8-1.57-10.3-1.59l-.04-1.99c-.07-.03-.26.09-.25.26l.1,7.02c.68.48,1.36.28,2.08.4,2.4.4,4.68,1.44,6.44,3.11,2,1.9,2.85,4.44,3.28,7.1.18,1.12-.09,2.35.26,3.44.51.69,2.02.64,2.83.83,1.22.28,2.23.53,3.27.88.82.27,1.69.31,2.67.7.34-.18-.43-7.02-.47-7.22Z"/>
  <path class="cls-133" d="M99.94,45.89l-.44,6.17c1.04-.3,2.08-.37,2.98-.72,1.91-.75,3.95-.84,6.04-1.51-.21-8.27,3.55-13.45,11.88-13.99.11-2.02.06-3.77.02-5.55-5.92.19-11.53,1.76-16.74,4.48-2.25,2.18-3.51,8.02-3.74,11.14Z"/>
  <path class="cls-37" d="M113.96,87.82c1.7-1.62,4.1-1.89,6.21-.83.63.32,1.17.26,1.78-.02,2.19-1.03,4.45-.64,6.27.84.57.46,1,1.08,1.66,1.39,1.18-1.04,3.74-5.04,3.95-6.19-1.72-.58-1.72,1.89-3.49,3.11-1.06.73-2.28-.32-2.79-1.22-.45-.8-.53-1.43-.95-2.36-6.23-2.04-4.84-2.2-11.28.08-.46,1.38-.76,2.88-2.21,3.59-1.69.82-3.05-1.51-3.57-2.8-.07-.18-2.82-1.93.39,3.05.64.99,1.69,1.73,2.27,2.9.79-.57,1.2-1.02,1.75-1.55Z"/>
  <path class="cls-159" d="M138.44,106.65l-.47.91c1.41-.52,2.49-1.61,3.71-2.56.75-.58,1.11-.92,1.26-1.94.24-1.68,1.09-3.24,2.48-4.24.26-2.21.56-4.32,1.2-6.44.8-2.65,2.4-4.82,3.62-7.36l-2.2,2.98c-5.81,4.69-9.54,10.98-9.59,18.64Z"/>
  <path class="cls-63" d="M96.4,98.7c2.07,1.2,2.17,3.52,3.11,5.38.83,1.64,2.97,2.47,4.39,3.4l-.48-.89c.2-7.65-3.78-13.7-9.26-18.47l-2.27-2.91c.54,1.25,1.45,2.3,2.12,3.59,1.59,3.07,2.62,6.32,2.38,9.89Z"/>
  <path class="cls-91" d="M142.88,43.6l.53,4.03.26,5.04c.76-.06,1.3.49,1.79.62,1.05.28,1.92.85,3.18,1.31.05-4.04-.9-11.38-2.97-14.57-1.43-1.15-3.46-3.37-5.02-4.21,1.03,2.48,1.86,5.01,2.23,7.79Z"/>
  <path class="cls-82" d="M130.71,43.49c-.43-1.37-1.12-2.74-2.33-3.63-4.47-3.29-10.49-3.15-14.92.19-1.1.83-1.7,2.1-2.16,3.39,1.13,0,2.01-.31,2.94-.38-.19-.06-.4-.07-.66-.22,2.72-3.92,10.99-3.31,13.87.07-.64.03-1.05.15-1.48.11-.07.07-.08.16.02.2,1.6-.16,2.96.14,4.71.27Z"/>
  <path class="cls-44" d="M109.98,53.08c7.79-.78,15.57-.78,23.24.21.32-.52.77-.77,1.31-1.33-3.22-.54-6.15-1.2-9.25-1.27-4.38-.09-8.61-.06-12.91.52-1.81.24-3.53.3-5.11.97.8.38,1.24.88,1.22,1.48,0,.11-.01.23-.05.34.33-.56.75-.86,1.55-.94Z"/>
  <path class="cls-103" d="M98.46,48.98l.59-5.1c.31-2.65,1-5.06,2.02-7.39-1.59,1.38-3.15,3.04-3.99,5.13-1.57,3.91-2.19,8.07-2.3,12.15l3.57-1.07c.23-1.18-.04-2.43.11-3.72Z"/>
  <path class="cls-47" d="M94.78,53.78c.11-4.08.73-8.23,2.3-12.15.84-2.09,2.4-3.76,3.99-5.13.38-.87,1.08-1.64,1.68-2.35.47-.55.91-1.13,1.28-1.73-4.17,1.96-7.23,5.09-8.64,9.26-1.4,4.17-2,8.42-2.05,12.79.71.14,1.1-.42,1.43-.7Z"/>
  <path class="cls-122" d="M120.41,30.28c-.01-.61.11-1.21-.08-1.99-3.83.2-7.57.92-11.29,2.04-1.7.51-4.52,2.85-5.42,4.22,0,.07.02.14.04.2,5.2-2.71,10.82-4.29,16.74-4.48Z"/>
  <path class="cls-150" d="M121.72,30.31c3.5.02,6.98.31,10.3,1.59l5.36,2.08c.21.08.42.13.35-.14-.46-.56-.97-1.06-1.4-1.65l-2.34-1.55c-3.44-2.28-8.17-2.11-12.32-2.32l.04,1.99Z"/>
  <path class="cls-3" d="M127.47,42.91c-2.88-3.38-11.15-4-13.87-.07.26.15.47.16.66.22,3.91-.29,7.83-.41,11.73-.04.43.04.84-.08,1.48-.11Z"/>
  <path class="cls-158" d="M141.91,44.86c.03.2.8,7.04.47,7.22-.98-.39-1.85-.43-2.67-.7-.04.43.54.39.79.65.68.7,1.48,1.01,2.46.79.82.47,1.69.59,2.52.47-.49-.13-1.03-.67-1.79-.62l-.26-5.04-.53-4.03c-.37-2.78-1.19-5.31-2.23-7.79-.38-.91-1.36-1.6-1.9-2.4.06.14.03.25-.01.35-.05.13-.29.26-.45.08l-.92-1.04c-.4-.45-.72-.38-1.04-.6.42.58.93,1.09,1.4,1.65,2.99,3.62,3.37,6.37,4.18,11.01Z"/>
  <path class="cls-51" d="M154.1,57.43c-.47.24-.99.51-1.49.66.15-.02.31-.04.47-.05.85-.04,1.72.22,1.92,1.28-1.36-.25-2.5.12-3.43,1.21,1.35,1.64,1.89,3.5,2.47,5.73,2.05-1.26,3.5-3.75,3.23-6.04-.09.18.06.4-.24.76-.17-1.75-1.47-2.8-2.92-3.56Z"/>
  <path class="cls-58" d="M89.18,57.3c-.15-.21-.41-.18-.64-.17-1.76.66-3.2,1.88-3.41,3.86-.38-.54-.06-.91-.16-1.25-.23,1.18-.35,2.19.4,3.5.61,1.08,1.1,2.42,2.55,2.98.48-2.11,1.32-4.1,2.43-5.8-1-.86-2.08-1.19-3.52-1.15.45-.95,1.55-1.38,2.47-1.22-.1-.1-.25-.15-.39-.21-.21-.09.09-.36.28-.54Z"/>
  <path class="cls-26" d="M99.05,43.88l-.59,5.1c-.15,1.29.13,2.55-.11,3.72l1.29-.3c1.01-.23,2.27-.23,2.84-1.07-.9.35-1.94.43-2.98.72l.44-6.17c.22-3.12,1.49-8.96,3.74-11.14-.02-.07-.04-.13-.04-.2-.34.01-.76-.03-.88-.4-.6.71-1.3,1.48-1.68,2.35-1.02,2.32-1.72,4.74-2.02,7.39Z"/>
  <path class="cls-161" d="M131.99,49.47c0-1.46.09-2.72-.25-4.15-1.39-.22-2.67-.46-4.23-.54.77,1.61.81,2.73-.02,4.27,1.63.24,2.91.43,4.5.41Z"/>
  <path class="cls-107" d="M142.78,55.72c3.17,1.68,4.73.89,6.31,1.17v-.24c-.61.14-1.09-.27-1.67-.57-2.48-1.27-5.02-2.08-7.77-2.84.77.93,1.63,1.5,2.1,2.45.26-.22.66-.17,1.03.03Z"/>
  <path class="cls-87" d="M85.13,60.99c.2-1.99,1.65-3.21,3.41-3.86,2.29-.86,3.61.67,5-.23l-.2-.21c-1.21-1.27-3.32-1.69-5.19-.91-1.69.71-2.82,2.11-3.17,3.96.11.34-.22.7.16,1.25Z"/>
  <path class="cls-33" d="M154.1,57.43c1.45.75,2.76,1.81,2.92,3.56.31-.36.16-.58.24-.76-.19-1.64-1.01-2.94-2.44-3.88-1.84-1.21-4.12-1.13-5.74.3v.24c2.7.49,2.54-.74,5.02.54Z"/>
  <path class="cls-125" d="M145.67,40.02c-.89-2.55-2.73-4.64-5.09-6.12-.84-.52-1.52-1.21-2.59-1.28.07.49.58.51.77.79.53.8,1.52,1.5,1.9,2.4,1.56.84,3.58,3.07,5.02,4.21Z"/>
  <path class="cls-119" d="M100.31,55.44c.62-.67,1.23-1.3,1.86-2.15-1.86.45-3.57,1-5.29,1.81-1.22.58-2.31,1.34-3.54,1.59l.2.21c2.68-.03,4.42-1.04,6.77-1.46Z"/>
  <path class="cls-141" d="M120.96,25.41c-1.11-.05-2.11.22-2.67,1.24l5.39-.04c-.64-1.17-1.71-1.16-2.73-1.2Z"/>
  <path class="cls-21" d="M129.44,85.07c.88.08,1.57-1.15,1.77-1.82l-3.2-.32c.16.75.51,2.06,1.43,2.14Z"/>
  <path class="cls-93" d="M112.6,85.06c.91-.17,1.19-1.41,1.28-2.09l-3.29.33c.38.71,1.01,1.94,2.01,1.76Z"/>
  <path class="cls-120" d="M131.03,81.55c-.41.14-.88-.13-1.44.21,1.01.16,1.98.09,3.15.04-.29-.36-.67-.16-.98-.25-.17-.05-.36.02-.72,0Z"/>
  <path class="cls-41" d="M103.43,106.6l.48.89c9.69,6.3,22.61,6.43,32.87,1.01.48-.25.82-.66,1.19-.93l.47-.91c.05-7.66,3.79-13.96,9.59-18.64l2.2-2.98c.32-.66.97-1.11,1.16-2-3.43-1.98-6.92-3.62-10.86-4.75-.6,1.16-1.29,2.1-2.28,2.8-.84.59-1.65,1.19-2.73,1.61-2.72,6.54-7.43,12.64-15.28,12.11-5.75-.39-8.57-3.3-11.57-7.95-1.14-1.01-1.33-2.9-2.29-4.13-1.94-1.02-4.01-2-4.81-4.45-3.84,1.02-7.42,2.74-10.92,4.76.15.91.91,1.37,1.26,2.19l2.27,2.91c5.48,4.78,9.45,10.82,9.26,18.47ZM112.45,97.02c.11-.09.41-.23.55-.14,5.18,3.3,11.15,3.24,16.13-.07.36.1.69.48.57.78-1.5,3.67-4.84,5.53-8.77,5.52-5.97-.02-9.46-5.29-8.48-6.09Z"/>
  <path class="cls-118" d="M120.93,103.11c3.93.01,7.27-1.85,8.77-5.52.12-.31-.2-.68-.57-.78-.11,1.07-.94,1.78-1.93,2.37-3.74,2.23-10.74,2.23-13.89-1.3-.27-.31-.38-.67-.31-1-.15-.09-.44.04-.55.14-.97.8,2.52,6.07,8.48,6.09Z"/>
  <path class="cls-143" d="M113.31,97.88c3.15,3.53,10.15,3.53,13.89,1.3.99-.59,1.82-1.3,1.93-2.37-4.98,3.31-10.95,3.38-16.13.07-.07.33.03.7.31,1Z"/>
  <path class="cls-120" d="M120.23,94.8c7.86.54,12.57-5.57,15.28-12.11,1.08-.42,1.9-1.02,2.73-1.61-.6-.08-.66-.73-.97-1.17-1.31.73-2.74,1.18-4.18,1.55-.05.46.58.45,1.11.7-.4.23-.32.57-.37.86-.21,1.14-2.77,5.15-3.95,6.19-.66-.31-1.09-.93-1.66-1.39-1.82-1.49-4.09-1.87-6.27-.84-.61.29-1.14.34-1.78.02-2.11-1.06-4.51-.8-6.21.83-.56.53-.97.98-1.75,1.55-.58-1.17-1.63-1.9-2.27-2.9-.27.49-.8.26-1.27.38,3,4.65,5.81,7.56,11.57,7.95ZM120.96,88.73c2.67-1.73,5.9-1.05,7.8,1.35-.19.57-.73.72-1.08,1.04-3.24,2.92-10.34,2.64-13.21.09-.38-.3-.83-.47-1.26-.96,1.79-2.59,5.06-3.24,7.75-1.52Z"/>
  <path class="cls-79" d="M122.21,89.53c-.75.26-1.36.43-2.13.12-1.94-.77-5.42-.35-5.61,1.55,2.87,2.55,9.97,2.83,13.21-.09-1.11-1.64-3.53-2.25-5.47-1.59Z"/>
  <path class="cls-36" d="M114.47,91.21c.18-1.9,3.67-2.32,5.61-1.55.77.31,1.38.14,2.13-.12,1.94-.67,4.36-.06,5.47,1.59.36-.32.89-.47,1.08-1.04-1.9-2.4-5.13-3.08-7.8-1.35-2.69-1.72-5.96-1.07-7.75,1.52.43.49.87.66,1.26.96Z"/>
  <path class="cls-156" d="M124.5,44.47c-4.04-.13-10.14-.24-13.99.84-.38,1.33-.69,2.67-.58,4.14,1.39.12,2.66-.32,4.11-.35l11.22-.23c1.12-.02,1.62-1.72,1.39-2.55-.27-1.01-.96-1.8-2.16-1.84ZM113.48,47.71c-.44,0-.8-.36-.8-.8s.36-.8.8-.8.8.36.8.8-.36.8-.8.8ZM118.01,47.55c-.46,0-.83-.37-.83-.83s.37-.83.83-.83.83.37.83.83-.37.83-.83.83ZM123.52,47.56c-.46,0-.83-.37-.83-.83s.37-.83.83-.83.83.37.83.83-.37.83-.83.83Z"/>
  <path class="cls-139" d="M123.52,45.91c-.46,0-.83.37-.83.83s.37.83.83.83.83-.37.83-.83-.37-.83-.83-.83Z"/>
  <path class="cls-64" d="M118.01,45.88c-.46,0-.83.37-.83.83s.37.83.83.83.83-.37.83-.83-.37-.83-.83-.83Z"/>
  <path class="cls-113" d="M113.48,46.11c-.44,0-.8.36-.8.8s.36.8.8.8.8-.36.8-.8-.36-.8-.8-.8Z"/>
  <path class="cls-7" d="M129.1,67.91c-3.04-3.73-14.27-3.81-16.61.71-.45,4.07,4.86,7.8,8.93,7.62,3.01-.14,5.6-2.07,7.28-4.35.47-.65.5-1.21.68-1.79-.15-.64.24-1.56-.28-2.2ZM116,67.79c0-.21.26-.57.62-.66,2.86-.73,5.87-.68,8.74-.02.31.07.47.36.53.51.64,1.83-9.82,1.79-9.89.17Z"/>
  <path class="cls-109" d="M125.36,67.11c-2.87-.66-5.89-.7-8.74.02-.36.09-.62.45-.62.66.06,1.62,10.52,1.66,9.89-.17-.05-.16-.22-.44-.53-.51Z"/>
  <path class="cls-34" d="M111.53,62.68c-.51-2.31-2.15-4.29-4.54-4.76-3.76-.74-6.89,1.99-7.24,5.68-.27,2.82.88,5.2,3.18,6.66,1.83.97,3.95,1,5.79-.15,2.31-1.76,3.49-4.44,2.82-7.43ZM102.14,67.75c-1.18-1.57-1.52-3.54-.72-5.53.59-1.47,2.16-3.09,4.18-3.23,2.73-.2,5.05,2.16,4.93,4.82-.34-.84-1.1-1.51-1.83-1.75-1.14-.37-2.16-.07-2.99.69-1.05.95-1.32,2.31-1.14,3.64.19,1.36,1.04,2.4,2.54,3-1.88.71-3.81-.09-4.97-1.64ZM107.63,64.28c0-.62.5-1.12,1.12-1.12s1.12.5,1.12,1.12-.5,1.12-1.12,1.12-1.12-.5-1.12-1.12Z"/>
  <path class="cls-168" d="M107.11,69.4c-1.5-.61-2.35-1.64-2.54-3-.19-1.33.09-2.69,1.14-3.64.84-.76,1.85-1.06,2.99-.69.73.24,1.5.91,1.83,1.75.12-2.67-2.2-5.02-4.93-4.82-2.02.15-3.59,1.77-4.18,3.23-.8,1.98-.46,3.96.72,5.53,1.16,1.55,3.08,2.35,4.97,1.64Z"/>
  <circle class="cls-140" cx="108.75" cy="64.28" r="1.12"/>
  <path class="cls-30" d="M142.09,62.64c-.51-2.05-1.72-3.49-3.64-4.37-2.22-1.01-4.55-.65-6.3,1.23-2.75,2.97-2.39,7.83.75,10.39,2.06,1.18,4.4,1.43,6.52.23,2.26-1.88,3.41-4.52,2.67-7.48ZM132.29,64.43c0-.55.22-1.23.91-1.31.72-.08,1.04.55,1.11,1.1.06.49-.21,1.22-.99,1.22-.73,0-1.03-.58-1.03-1.02ZM139.17,68.54c-1.28.99-2.76,1.39-4.35.85,2.18-.83,2.98-2.73,2.49-4.83-.34-1.47-1.38-2.57-2.81-2.69-1.47-.12-2.65.88-3.13,2.2-.11-2.43,1.78-4.93,4.3-5.1,3.21-.22,5.49,2.72,5.33,5.76-.08,1.59-.77,2.98-1.84,3.81Z"/>
  <path class="cls-168" d="M141.01,64.73c.15-3.04-2.12-5.98-5.33-5.76-2.52.17-4.4,2.66-4.3,5.1.47-1.32,1.65-2.33,3.13-2.2,1.43.12,2.47,1.22,2.81,2.69.49,2.1-.31,4-2.49,4.83,1.59.54,3.07.14,4.35-.85,1.07-.83,1.76-2.22,1.84-3.81Z"/>
  <path class="cls-162" d="M134.31,64.22c-.06-.55-.39-1.19-1.11-1.1-.69.08-.92.76-.91,1.31,0,.43.3,1.02,1.03,1.02.78,0,1.05-.73.99-1.22Z"/>
  <path class="cls-159" d="M148.14,132.42c-2.02-3.13-2.76-4.84-6.07-6.67-.4-.22-.7-.52-.72-.91-.22-.07-.57-.42-.91-.26-.45.22-.6.84-.79,1.21.99.54,1.99.94,2.75,1.93-.51.58-1.07-.13-1.52-.03-1.24.26-2.53-.19-3.9-.42-4.56-.75-8.96-1.55-13.62-1.6-4.79-.05-9.14,1.69-13,4.38-2.24,1.56-4.3,3.21-5.65,5.48,3.28.3,3.38-1.43,5-2.57.53-.37.82-1,1.68-1.14-.71,1.21-1,2.35-1.26,3.54-.57,3.14,2.7,2.32,3.69.24.39-.66.59-1.44,1.42-1.95.67-.43-.78,4.01-.53,3.37.01.22,0,.64.11.85,1.79.64,2.85-.81,4-1.76,1.46-1.21,3.28-1.84,4.45-3.48.13-.18.67-.17.87-.14.21.04.29.38.35.66.02.08.08.19.07.27,2.87,1.21,5.77,2.29,8.91,3.14,4.76,1.3,12.11.96,14.7-4.16Z"/>
  <path class="cls-159" d="M124.23,133.06c.07.03.15.06.25.1-.09-.07-.17-.1-.25-.1Z"/>
  <path class="cls-111" d="M103.64,109.36c.38,1.39.95,2.43.85,3.83,3.06.06,6.17,4.02,6.14,7.07,2.75-.23,4.84,1.3,6.41,3.3,2.96-.92,5.86-1.07,8.83-.76,1.45-1.87,3.38-2.82,5.68-2.6-.67-3.1,3.23-7.31,6.02-7.12-.08-1.32.21-2.29.55-3.49-11.3,6-23.23,5.88-34.47-.23Z"/>
  <path class="cls-83" d="M146.43,112.89c-2.03,3.31-4.17,6.45-5.74,10.11,4.43.85,7.79,3.47,10.81,6.84,3.22-3.52,4.46-9.06,4.54-13.92,0-.46.01-.84.17-1.15-.79-2.42-1.56-4.99-3.63-6.93-1.55.29-2.9,1.45-4.12,2.45-.94.77-1.42,1.6-2.03,2.61Z"/>
  <path class="cls-152" d="M151.98,134.02c-2.04-4.74-6.13-7.67-10.63-9.18.02.38.32.69.72.91,3.31,1.82,4.05,3.54,6.07,6.67-2.58,5.12-9.94,5.46-14.7,4.16-3.13-.86-6.03-1.93-8.91-3.14-.14.79-.34,1.53-.67,2.44,3.71,2.08,7.54,3.7,11.67,4.8,6.75,1.81,13.08-.57,16.45-6.66Z"/>
  <path class="cls-74" d="M91.86,116.91l1.8,5.29c.51.14.55-1.87,1.18-2.64.39,2.31.61,4.52,1.27,6.71.27-.47.05-.88.18-1.22-.5-4.08-.65-8.19-.91-12.35-.08-1.31-1.24-2.49-.77-3.96l-2.52-1.44c-1.84,1.95-3.39,4.02-4.9,6.26,2.33.2,3.99,1.32,4.66,3.34Z"/>
  <path class="cls-59" d="M104.33,135.74c.15-.03.3-.18.37-.21,1.35-2.27,3.41-3.92,5.65-5.48,3.86-2.69,8.21-4.43,13-4.38,4.66.05,9.06.85,13.62,1.6,1.37.22,2.66.67,3.9.42-5.57-2.46-13.43-3.65-19.67-3.22-5.7.4-10.67,3.34-14.5,7.43-1.09,1.16-2.14,2.22-2.51,3.66.02.08.07.19.13.18Z"/>
  <path class="cls-94" d="M151.5,129.83l2.67,4.66c3.19-6.09,4.15-13.23,2.04-19.73-.16.31-.16.69-.17,1.15-.08,4.85-1.32,10.39-4.54,13.92Z"/>
  <path class="cls-121" d="M157.14,140.16c.14-2.34-.21-4.56-.47-7.03-3.32,7.85-3.83,1.73-6.16,5.92,1.24,1.13,2.7,1.88,4.31,2.01.64.05,2.28-.13,2.32-.9Z"/>
  <path class="cls-147" d="M124.12,132.5c-.2-.04-.74-.04-.87.14-1.17,1.65-2.99,2.27-4.45,3.48-1.15.95-2.22,2.4-4,1.76-.1-.21-.1-.63-.11-.85-.32.81-.29,1.98.46,2.74.64.64,1.7.26,2.35-.03.85-.38.96-1.22,1.21-2.14.37-1.34,3.41-.35,4.94-3.89.06-.14.3-.38.41-.57.03-.06.09-.08.16-.08.07,0,.16.03.25.1-.07-.28-.14-.62-.35-.66Z"/>
  <path class="cls-68" d="M102.41,135.61c.31-.98.58-1.47.65-2.26-2.42.42-4.38-.55-5.51-2.76-1.32,1.88-.84,2.13-.02,4.57l4.88.46Z"/>
  <path class="cls-90" d="M96.11,126.27c-.66-2.19-.88-4.41-1.27-6.71-.63.77-.67,2.78-1.18,2.64l2.29,7.75c.79-1.58.56-3.21.35-4.9-.13.34.09.75-.18,1.22Z"/>
  <path class="cls-15" d="M104.7,135.53c-.08.03-.22.18-.37.21-.06.01-.1-.1-.13-.18-.54.51-.75,1.53-.28,2.25.38.6,1.41.61,2.01.23,2.59-1.69,2.32-2.77,3.77-5.08-1.62,1.13-1.72,2.87-5,2.57Z"/>
  <path class="cls-102" d="M140.4,117.16c-1.14.32-1.76,1.23-2.45,2.09-.75.95-1.81,1.5-2.38,2.84,1.94.69,5.16-3.21,4.83-4.93Z"/>
  <path class="cls-23" d="M100.38,112.02c-.52,1.53,3.76,6.89,4.35,4.95-1.04-2.1-2.43-3.85-4.35-4.95Z"/>
  <path class="cls-170" d="M106.61,122.23c-1.55-1.93-3.03-3.62-4.94-5.21-.49,1.82,3.04,6,4.94,5.21Z"/>
  <path class="cls-46" d="M99.04,106.84c.32,1.44,1.3,2.14,1.89,3.18.57,1,1.11,1.99,2.23,2.73.01-2.53-1.66-5.12-4.12-5.91Z"/>
  <path class="cls-39" d="M139.67,109.44c-.35,1.03-1.18,1.92-.77,3.17,1.51-1.93,2.9-3.67,4.03-5.8-1.8.07-2.56,1.39-3.26,2.62Z"/>
  <path class="cls-92" d="M145.91,109.09c-1.43,1.9-3.06,3.57-4.13,5.72,2.72-.59,4.36-3.12,4.13-5.72Z"/>
  <path class="cls-32" d="M109.41,119.48c-.56-2.41-2.27-4.1-4.24-5.1-.16-.08-.46.12-.6.09-.1-.02-.23.19-.08.3l.35.25c1.69,1.23,2.66,3.39,4.58,4.46Z"/>
  <path class="cls-106" d="M99.64,114.72c.73-.21-3.29-5.15-3.8-5.5-.25,1.98,2.37,5.92,3.8,5.5Z"/>
  <path class="cls-145" d="M98.58,109.62c-.63-1.34-1.13-2.7-2.21-3.89-.13-.15-.07-.58.08-.55-.31-.25-.76-1.2-1.32-.69-.59.82,3.2,6.68,3.45,5.13Z"/>
  <path class="cls-148" d="M139.48,114.55c-.6.91-1.35,1.66-2.15,2.27,0,.28.57.54.9.31,1.7-1.15,4.05-4.34,3.34-4.87-.17-.13-.53-.26-.73.11.67.08-.5.85-1.37,2.18Z"/>
  <path class="cls-11" d="M143.34,109.43c.14.18.36.19.53.18.47-.02,2.61-2.58,2.93-4.75-1.1.31-3.28,3.37-3.46,4.57Z"/>
  <path class="cls-67" d="M94.31,95.89c.03-.18-1.84,1.5-.92,4.64-.04.18-.15.35-.28.25.1.22.11.5.27.61.24.15.57.11.72,0,.75-.49-.45-2.37.04-3.4.59-1.25.68-2.94-.08-2.24.09-.03.26.05.24.13Z"/>
  <path class="cls-101" d="M149.07,103.54c-.1.05-2.16,3.14-1.77,3.72,1.6-.73,2.55-2.08,2.89-3.57-.16-.16-.16-.35-.26-.71-.27.35-.57.42-.86.56Z"/>
  <path class="cls-126" d="M115.6,123.96c-1.15-1.35-2.55-2.56-4.31-2.42.48,1.07,3.43,3.62,4.31,2.42Z"/>
  <path class="cls-17" d="M92.31,103.21c-.29.2-.22.64-.44.88.5,1.36,1.36,2.78,2.98,3.26-.41-1.66-1.46-2.67-1.97-4.14v.45c0,.35-.32-.39-.56-.44Z"/>
  <path class="cls-54" d="M147.72,95.66c-.18.02-.34.39-.26.68.81,3.06-.61,5.49.6,5.34.51-.06.59-.67.72-1.14-.31-.41-.25-1.04-.21-1.65.08-1.04-.53-1.94-.25-2.82-.14-.15-.31-.45-.6-.41Z"/>
  <path class="cls-153" d="M111.34,123.57c-.12.87-3.84-3.54-4.76-3.52.22.95,3.88,4.98,4.9,4.11.35-.3-.02-.38-.13-.59Z"/>
  <path class="cls-98" d="M111.34,123.57c-.93-1.76-2.64-3.01-4.31-4.29-.23-.18-.68.48-.46.77.92-.02,4.65,4.39,4.76,3.52Z"/>
  <path class="cls-163" d="M130.98,123.11c.15-.01.52.02.66-.12l2.7-2.55c.3-.29.63-.43.98-.4.93-3.05-4.21,2.48-4.48,2.85.03.12.06.23.14.22Z"/>
  <path class="cls-77" d="M96.04,100.14c-.29-.22-.39-.86-1.04-.68.11,1.96,1.63,3.63,2.75,5.19,0-.83-1.32-3.6-1.71-4.51Z"/>
  <path class="cls-2" d="M137.23,114.56c-.11-1.46-5.13,2.8-4.54,4.75.01.23.23.28.37-.1-.72-.24,3.9-5.16,4.18-4.65Z"/>
  <path class="cls-128" d="M132.5,123.39c.45-.3,2.56-2.5,2.82-3.35-.35-.03-.68.11-.98.4l-2.7,2.55c-.15.14-.52.11-.66.12-.08,0-.11-.11-.14-.22-1.7.38,1.52.6,1.67.5Z"/>
  <path class="cls-144" d="M143.34,109.43c.18-1.2,2.36-4.25,3.46-4.57.45-3.06-4.82,3.95-3.46,4.57Z"/>
  <path class="cls-13" d="M137.2,123.41c-.24.37-.13,1.06.09,1.25.23.2,1,.32,1.17-.15.32-.84.31-1.48.64-2.53-.48.6-1.45.73-1.91,1.42Z"/>
  <path class="cls-160" d="M108.88,127.54c-.88-.4-1.52-.38-2.28-.28-.19.8-.28,1.48-.2,2.28.91-.65,1.75-1.2,2.48-2Z"/>
  <path class="cls-71" d="M133.05,119.21c.88-.6,1.48-1.53,2.28-2.35.72-.73,1.52-1.35,1.89-2.31-.28-.51-4.9,4.41-4.18,4.65Z"/>
  <path class="cls-24" d="M137.33,116.82c.79-.61,1.55-1.36,2.15-2.27.87-1.33,2.04-2.1,1.37-2.18-.93.47-1.48,1.46-2.24,2.27-.59.63-1.24,1.23-1.27,2.17Z"/>
  <path class="cls-84" d="M152.57,106.16c-.14-.81-.65-1.04-1-1.93-.41,1.11-1.22,1.86-1.85,3.08.98-.49,1.74-.91,2.85-1.14Z"/>
  <path class="cls-167" d="M144.71,103.66c1-1.1,1.9-2.45,2.25-4.14-.66-.16-1.07.44-1.3.89.65-.3-1.26,2.49-.94,3.25Z"/>
  <path class="cls-25" d="M96.37,105.72c1.08,1.19,1.57,2.56,2.21,3.89,1.14-.24-1.07-3.59-2.13-4.44-.15-.03-.21.4-.08.55Z"/>
  <path class="cls-135" d="M92.31,103.21c.24.05.56.79.56.44v-.45c-.32-.95-.76-1.83-1.17-2.76-.54,1.2-.36,2.45.17,3.64.22-.24.15-.67.44-.88Z"/>
  <path class="cls-96" d="M98.13,105.12c.29-1.93-.55-3.77-2.09-4.98.39.91,1.71,3.68,1.71,4.51.09.15.11.43.38.47Z"/>
  <path class="cls-53" d="M145.66,100.41c-1.17.93-1.82,2.41-1.85,3.97.59.06.67-.46.9-.73-.31-.76,1.6-3.55.94-3.25Z"/>
  <path class="cls-146" d="M148.57,98.89c-.05.61-.1,1.24.21,1.65.8-1.39.73-3.18-.45-4.47-.29.88.33,1.78.25,2.82Z"/>
  <path class="cls-142" d="M110.59,126.59c.23-.11.6-.65.3-.86-.71-.49-1.33-.67-2.04-1.3-.44.73.16,1.28.55,1.84.28.4.84.49,1.19.33Z"/>
  <path class="cls-12" d="M127.61,122.68c.62.26,1.28.47,1.87.21.37-.16.83-.65,1.08-1.36-1.21-.33-2.06.35-2.95,1.15Z"/>
  <path class="cls-108" d="M149.93,102.98c.11.37.1.55.26.71.25-1.09.59-2.19.05-3.4l-.8,1.87c-.21.49-.38.93-.37,1.38.28-.14.59-.21.86-.56Z"/>
  <path class="cls-99" d="M93.39,100.53c-.92-3.15.95-4.83.92-4.64.01-.07-.16-.16-.24-.13-1.62,1.03-1.75,3.18-.95,5.02.12.1.23-.07.28-.25Z"/>
  <path class="cls-8" d="M123.06,137.34c-.66-.2-1.31.14-1.35.78,1.27.11,2.34.31,3.45.25-1.11-.52-1.39-.82-2.1-1.03Z"/>
  <path class="cls-45" d="M107.39,125.65c.06-.73-.09-1.18-.13-1.83-.02-.31-.62-.2-.83-.12-.36.13-.23,1.75.08,1.94.18.1.86.22.88.02Z"/>
  <path class="cls-137" d="M141.58,116.55c0,.43-.21.8.14,1.31l.99-1.83c-.75-.14-1.12.14-1.13.52Z"/>
  <path class="cls-81" d="M135.73,123.82c.02-.65-1.19-.72-1.32-.15-.11.48,1.3.83,1.32.15Z"/>
  <rect class="cls-14" x="135.96" y="117.94" width=".8" height=".85" transform="translate(-40.58 154.37) rotate(-52.46)"/>
  <path class="cls-149" d="M142.81,110.84c0-.25-.2-.45-.45-.45s-.45.2-.45.45.2.45.45.45.45-.2.45-.45Z"/>
  <path class="cls-70" d="M99.01,118.18c-.27-.73-1.24-.95-1.84-1.02.24,3.93.67,7.85,1.31,11.85.21,1.3,1.17,2.61,2.27,2.94,2.03.59,3.66-.35,4.21-2.28.39-1.39.21-2.87-.04-4.38-2.7-1.64-4.77-4.06-5.92-7.11ZM104.29,128.28c0,1.43-1.16,2.59-2.59,2.59s-2.59-1.16-2.59-2.59,1.16-2.59,2.59-2.59,2.59,1.16,2.59,2.59Z"/>
  <path class="cls-40" d="M104.62,123.35c-2.24-1.74-4.34-3.83-4.27-6.98-1.2-.35-2.27-.87-3.22-1.51-.21.75-.07,1.43.04,2.31.6.07,1.56.29,1.84,1.02,1.15,3.06,3.22,5.47,5.92,7.11-.09-.53.12-1.49-.31-1.95Z"/>
  <path class="cls-129" d="M99.11,128.28c0,1.43,1.16,2.59,2.59,2.59s2.59-1.16,2.59-2.59-1.16-2.59-2.59-2.59-2.59,1.16-2.59,2.59ZM103.19,129.02c-.23.89-1.13.97-1.69.91-.8-.08-1.27-.64-1.41-1.25-.17-.77.18-1.65.96-1.91.66-.21,1.26-.05,1.67.31.46.41.69,1.08.47,1.94Z"/>
  <path class="cls-80" d="M101.05,126.77c-.79.26-1.13,1.13-.96,1.91.13.62.61,1.17,1.41,1.25.56.06,1.46-.02,1.69-.91.22-.86,0-1.53-.47-1.94-.41-.37-1.01-.53-1.67-.31Z"/>
  <path class="cls-88" d="M89.09,176.34c.18.7.39,1.36.37,1.99,3.49-.66,10.99.36,10.48,4.61,1.12.45,2.42.52,3.62.05.95-.37,1.29-1.17.96-2.15-.14-.42-.57-1.03-.42-1.56.8-2.75,2.5-5.09,4.86-6.78-1.89-2.16-3.59-4.44-4.33-7.47,3.53,2.03,6.95,3.6,10.81,4.42,3.1.65,6.09,1.21,9.24,1.29,2.45.06,4.5.83,6.62,2,2.89,1.6,4.78,4.17,6.14,7.19.35.79.95,1.23.24,2.27-.24.36-.28,1.14-.08,1.63.66,1.61,4.44.95,5.67.78-.57-4.57,5.69-5.26,8.87-5.31,3.34-5.32,2.26-13.39,3.19-19.17.88-5.43.69-10.74-.21-16.16-.11-.68-.09-1.2-.82-1.36-.87-.11-1.83-.29-2.64-.73-4.6,4.26-8.96,5.25-15.4,4.24.33.94-.13,1.65-.19,2.27-.26,2.76-.89,5.53-2.7,7.83-3.71,4.72-10.44,5.27-15.95,4.33-3.71-.63-6.8-2.57-8.7-5.67-1.36.24-3.3,1.61-5.09,2.07l-8.84-.43c.31.99.71,1.9,1.02,3.16-1.13-.52-1.46-1.54-2.22-2.22.02.3-.15.56-.35.87-3.72,5.6-5.87,11.3-4.15,18.03Z"/>
  <path class="cls-166" d="M186.64,174.44c4.65-2.5,9.38-5.44,11.84-10.03l1-1.87c.33-.61.7-1.1.6-1.74-.55-.06-1.24-.08-1.67.57.09.06.21.11.07.16-2.34,1.78-4.55,3.45-7.07,4.94-10.23,6.02-21.97,4.22-31.41-2.44-.31-.22-.12-.86-.22-1.06-.31.65-.32,1.48-.33,2.31-.02,3.08-.13,6.04-.6,9.24,2.4,1.47,4.95,2.44,7.83,2.99,6.9,1.3,13.75.25,19.94-3.07Z"/>
  <path class="cls-152" d="M200.09,160.8c.09.64-.27,1.12-.6,1.74l-1,1.87c-2.46,4.59-7.18,7.53-11.84,10.03-6.19,3.32-13.05,4.37-19.94,3.07-2.88-.54-5.43-1.51-7.83-2.99-.35,2.36-1.38,4.57-2.19,6.91.45,1.54.18,2.94-.17,4.58,15.65.99,31.69-4.32,40.63-17.69,1.38-2.07,2.62-4.13,3.24-6.59.07-.3.2-.89-.28-.94Z"/>
  <path class="cls-73" d="M134.82,145.73c-2.03-.47-3.77-1.11-5.77-1.8-.79.81-1.55,1.49-2.59,2.01l-15.9,7.84c-.42.2-.69.37-.62.79,1.3,1.98,3.16,3.52,5.54,4.27,3.38,1.06,6.78,1.19,10.26.51,5.82-1.14,8.8-5.18,9.18-10.79.06-.9-.09-1.83-.1-2.84Z"/>
  <path class="cls-72" d="M137.6,183.83c-.2-.49-.16-1.27.08-1.63.7-1.04.11-1.48-.24-2.27-1.35-3.03-3.25-5.59-6.14-7.19-2.11-1.17-4.17-1.94-6.62-2-3.15-.08-6.14-.63-9.24-1.29-3.86-.82-7.29-2.39-10.81-4.42.74,3.03,2.44,5.31,4.33,7.47-2.36,1.69-4.06,4.03-4.86,6.78-.15.53.28,1.14.42,1.56.33.98-.02,1.78-.96,2.15-1.2.47-2.49.4-3.62-.05l-.27,2.31c2.33.68,4.95.77,7.17-.14,1.28-.53,1.72-1.94,1.36-3.15-1.17-4.01,3.28-6.72,6.63-8.21-1.71-1.36-3.86-1.58-5.21-3.52,2.45.46,4.65,1.45,7.01,2.13,5.21,1.51,5.54.57,10.27,1.5,3.43.68,7.81,5.65,7.7,9.49-.05,1.85.5,3.25,2.55,3.66,2.04.41,4.38.21,6.42-.46.14-.73-.21-1.33-.29-1.95-1.23.18-5.01.84-5.67-.78Z"/>
  <path class="cls-69" d="M155.11,143.95c.9,5.42,1.09,10.73.21,16.16-.93,5.79.15,13.85-3.19,19.17.96-.02,1.87.55,2.88.85,1.31-2.32,2.06-4.87,2.23-7.53l.53-8.68c.46-7.45,1.6-14.73.22-22.16-1.26.74-2.49.97-3.7.82.73.16.71.68.82,1.36Z"/>
  <path class="cls-134" d="M126.12,144.17l-17.68,7.14c.31,1.4.89,2.35,1.49,3.27-.06-.42.21-.59.62-.79l15.9-7.84c1.04-.52,1.81-1.19,2.59-2.01,2,.68,3.74,1.33,5.77,1.8,0,1.01.16,1.94.1,2.84.44-.3.09-5.35-.1-6.33-2.44-.66-4.58-1.42-6.94-2.38-.32,1.09-.41,3.77-1.75,4.31Z"/>
  <path class="cls-31" d="M160.01,164.03c9.44,6.66,21.18,8.46,31.41,2.44,2.52-1.48,4.73-3.16,7.07-4.94.14-.05.02-.1-.07-.16-.53.05-1.02.39-1.55.7-2.13,1.26-4.09,2.44-6.34,3.48-10.27,4.74-22.12,2.87-30.42-4.77-.23.78-.23,1.39-.33,2.2.1.2-.09.84.22,1.06Z"/>
  <path class="cls-86" d="M136.26,146.1c6.44,1.01,10.8.03,15.4-4.24-.86-.47-1.59-1.16-2.51-1.92-3.72,2.83-8.38,3.75-13.05,2.62l-.03,5.8c.06-.61.52-1.33.19-2.27Z"/>
  <path class="cls-5" d="M121.97,175.15c-1.25-.16-2.39-.57-3.73-.41,4.31,3.83,9.24,6.58,14.63,8.48.06-1.25-.6-2.04-1.11-2.97-2.98-5.52-6.23-4.64-9.8-5.1Z"/>
  <path class="cls-38" d="M108.73,154.86c-.56-.91-.89-1.99-1.34-3.1l-6.16,2.24c-1.48.54-3.1-.12-4.59-.28l-2.7-.29c.09,1.16.56,2.1.86,3.07l8.84.43c1.8-.46,3.73-1.83,5.09-2.07Z"/>
  <path class="cls-154" d="M89.46,178.33c.02-.63-.19-1.29-.37-1.99-1.72-6.73.43-12.43,4.15-18.03.2-.31.37-.57.35-.87-.28-.25-.16-.96-.8-1.24-5.24,6.86-8.37,13.94-4.48,22.35.51-.04.81-.15,1.15-.22Z"/>
  <path class="cls-35" d="M57.66,197.71c5.37,4.08,11.67,6.25,18.39,6.8,3.25.27,6.12.1,9.43.09l63.34-.14-9.52-3.21c-4.15-1.4-4.62-2.26-4.75-6.37l-25.89.11c.07,2.31-.93,3.5-2.6,4.29-9.76,3.66-16.87,5.79-27.28,2.83-2.88-.82-2.9-4.63-2.33-6.98-3.96-.05-7.47-.74-11.07-1.79-2.63-.77-5.21-1.35-7.93-.96-.99.14-2.4.85-2.2,2.04.22,1.3,1.35,2.49,2.41,3.3Z"/>
  <path class="cls-18" d="M127.76,205.82l-45.9.1c-4.8.01-9.24-.23-13.81-1.59-3.94-1.18-9.62-3.81-12.5-6.91.09,2.09,5.14,5.54,6.91,6.46,4.54,2.38,9.41,3.68,14.56,3.69l12.29.02,73.09-.09c6.9,0,13.52-1.99,18.63-6.52,1.17-1.04,2.19-2.17,2.56-3.7-5.99,5.89-13.65,8.38-22.12,8.41l-33.72.12Z"/>
  <path class="cls-42" d="M162.27,204.16c4.37.5,8.55-.6,12.54-2.4,3.25-1.47,6.18-3.23,8.41-6.02.51-.64.86-1.48.54-2.31-1.03-2.7-6.19-2.15-8.64-1.46l-9.39,2.61c1.06,2.48,1.37,5.3.25,7.65-.67,1.4-2.39,1.45-3.72,1.93Z"/>
  <path class="cls-151" d="M147.04,209.46c-.65.47.02,1.75.67,2.08l4.89,2.46c.34-.75.64-1.44,1.2-2.16-.38-.96-.75-1.62-1.27-2.52-1.81.14-3.74-.23-5.48.14Z"/>
  <path class="cls-124" d="M79.8,209.46c-.3.04-.34.84-.25,1.09.1.26.42.56.77.75l4.91,2.68,1.14-2.35-1.16-2.3c-1.89.08-3.64-.09-5.41.13Z"/>
  <path class="cls-65" d="M142.56,209.37c-.31,2.01.62,4.19,2.55,5.02,1.19.51,2.65.27,3.8-.26-1.21-1.58-4.2-1.2-3.51-4.82-.99-.04-1.85-.1-2.84.05Z"/>
  <path class="cls-97" d="M75.39,209.39c-.35,1.76.07,3.57,1.5,4.51,1.34.89,3.11,1.06,4.69.08-1.81-1.35-4.3-1.31-3.45-4.51-.95-.2-1.78-.17-2.73-.08Z"/>
  <path class="cls-114" d="M90.43,211.14c.22.18.15.36-.03.46-1.46.86-2.4,2.03-3.05,3.65-.32-.17-.23-.47-.39-.71-.47,1.98.43,4.03,2.2,5.02s3.99.7,5.44-.72c1.45-1.43,1.78-3.64.82-5.43-.97-1.79-3-2.72-4.99-2.29ZM93.78,215.67c0,1.28-1.04,2.31-2.31,2.31s-2.31-1.04-2.31-2.31,1.04-2.31,2.31-2.31,2.31,1.04,2.31,2.31Z"/>
  <path class="cls-117" d="M87.35,215.25c.64-1.62,1.59-2.8,3.05-3.65.17-.1.25-.28.03-.46-1.72.37-3.07,1.7-3.47,3.41.16.24.07.54.39.71Z"/>
  <path class="cls-76" d="M89.16,215.67c0,1.28,1.04,2.31,2.31,2.31s2.31-1.04,2.31-2.31-1.04-2.31-2.31-2.31-2.31,1.04-2.31,2.31ZM91.42,214.36c.7,0,1.26.57,1.26,1.26s-.57,1.26-1.26,1.26-1.26-.57-1.26-1.26.57-1.26,1.26-1.26Z"/>
  <path class="cls-22" d="M91.42,216.88c.7,0,1.26-.57,1.26-1.26s-.57-1.26-1.26-1.26-1.26.57-1.26,1.26.57,1.26,1.26,1.26Z"/>
  <path class="cls-20" d="M157.14,211.31c.13.13.31.11.28.26-1.89,1.1-2.66,2.8-3.15,4.7.29,1.93,1.76,3.46,3.68,3.83,1.91.36,3.85-.52,4.83-2.21.98-1.69.78-3.81-.49-5.29-1.27-1.48-3.33-1.99-5.15-1.28ZM161.26,215.64c0,1.3-1.06,2.36-2.36,2.36s-2.36-1.06-2.36-2.36,1.06-2.36,2.36-2.36,2.36,1.06,2.36,2.36Z"/>
  <path class="cls-20" d="M154.28,216.26c-.02-.12-.01-.25-.02-.37,0,.14,0,.26.02.37Z"/>
  <path class="cls-10" d="M157.43,211.56c.03-.15-.16-.13-.28-.26-1.88.73-3.03,2.6-2.89,4.58,0,.12,0,.25.02.37.49-1.89,1.26-3.59,3.15-4.7Z"/>
  <path class="cls-29" d="M156.53,215.64c0,1.3,1.06,2.36,2.36,2.36s2.36-1.06,2.36-2.36-1.06-2.36-2.36-2.36-2.36,1.06-2.36,2.36ZM158.91,214.34c.71,0,1.29.58,1.29,1.29s-.58,1.29-1.29,1.29-1.29-.58-1.29-1.29.58-1.29,1.29-1.29Z"/>
  <circle class="cls-157" cx="158.91" cy="215.62" r="1.29"/>
  <path class="cls-28" d="M102.97,151.69l22.3-8.88c.68-.27.79-1.3.69-1.86l-24.88,9.33c-.83.31-2.04.65-2.9.54l-16.76-2.11c-.06.44,0,.92.25,1.44l17.93,2.31c1.19.15,2.31-.34,3.38-.77Z"/>
  <path class="cls-48" d="M124.35,140.14l-4.57-.66c-1.02,2.11-3.59,2.89-5.51,1.66-.29-.19-.35-.64-.68-.68-.25-.03-3.15,1.85-5.14-2.14-1.05.94-2.17,1.59-3.55,1.65-1.65.08-2.85-.96-2.92-2.66-.84-.28-1.65-.25-2.42-.3-.69.33,1.07,2.95.28,2.94l11.98,1.91c.55.09,1.07.19,1.22.67,1.12-.06,2.23.29,3.32.55l8-2.94Z"/>
  <polygon class="cls-95" points="99.29 141.04 100.69 146.05 109.77 142.76 99.29 141.04"/>
  <path class="cls-43" d="M109.28,145.79l7.07-2.71c-1.09-.26-2.19-.6-3.32-.55-.27.25-.6.48-1.05.64l-10.92,3.97c-.06.67-.12,1.2,0,1.82l8.21-3.18Z"/>
  <path class="cls-27" d="M64.3,146.63c-2.2-.34-4.28-.44-6.53-.95,0,.89.63,1.37,1.49,1.48l5.23.72c.21-.62.22-1.19-.19-1.25Z"/>
  <path class="cls-60" d="M99.56,137.01c-.44-.03-.84-.24-1.52-.18.23.94.53,1.86.86,2.84.15.46.68.25.94.29.79,0-.97-2.61-.28-2.94Z"/>
  <path class="cls-9" d="M69.88,143.96c.98-.9,2.1-1.49,3.36-1.33,1.19.15,2.03,1.19,2.84,2.1,2.38-.87,3.82.15,4.93,2.35l16.68,2.16c.32.04.43-.15.7-.21l-5.45-18.06-4.08-13.04c-.3-.76-1.61-1.23-2.48-1.32l-37.63-3.81c-.7-.07-1.26.23-1.5.61-.25.4-.3.98-.13,1.53l8.44,27.39c.08.25.31.37.32.62,0,.12.09.38-.22.34.29.44.85.65,1.46.73l7.88,1.1c.5-1.23,1.5-2.15,2.86-2.2.81-.02,1.39.53,2,1.05ZM64.99,134.02c.52-.71.93-1.26,1.5-1.81,1.92,2.27,7.54,4.11,8.63,1.36.82-2.06-2.24-3.5-3.97-3.76l-.44,1.79c-1.37-.39-2.69-.82-3.87-1.66-1.86-1.33-2.94-3.72-2.11-5.91.7-1.86,2.64-2.63,4.52-2.67l.34-2.07c.82-.15,1.54.04,2.38.14v2.26c1.87.56,3.54,1.39,4.99,2.71-.3.7-.79,1.28-1.4,1.82-1.81-1.45-3.86-2.44-6.21-2.14-.8.1-1.55.46-1.78,1.01-.34.81-.16,1.69.44,2.31.83.87,2.01,1.19,3.23,1.54.3-.59.2-1.04.41-1.65,1.26.23,2.45.58,3.61,1.26,2.22,1.32,3.63,4.1,2.75,6.61-.68,1.96-2.84,2.46-4.71,2.47-.27.68-.21,1.32-.42,2.18-.88,0-1.66-.07-2.48-.16l.25-2.24c-2.21-.59-4.24-1.59-5.68-3.37Z"/>
  <path class="cls-75" d="M55.9,142.94c0-.25-.24-.37-.32-.62l-8.44-27.39c-.17-.55-.13-1.13.13-1.53.24-.38.8-.68,1.5-.61l37.63,3.81c.87.09,2.18.56,2.48,1.32.39-.23.83-.39,1.32-.1.09-.22.03-.35.05-.48-.37-1.16-1.43-1.89-2.82-2.03l-40.57-4.12c-.99-.1-1.67,1.19-1.36,2.17l9.01,28.19c.24.74.51,1.33,1.19,1.71.31.04.22-.21.22-.34Z"/>
  <path class="cls-123" d="M90.19,117.82c-.5-.29-.93-.13-1.32.1l4.08,13.04,5.45,18.06c.79-.18,1.23-.98,1-1.91-.83-3.31-1.81-6.41-2.84-9.68l-6.32-20.08c-.01.13.04.25-.05.48Z"/>
  <path class="cls-127" d="M70.42,139.63c.82.1,1.6.17,2.48.16.21-.86.15-1.49.42-2.18,1.87-.01,4.03-.51,4.71-2.47.87-2.51-.53-5.29-2.75-6.61-1.16-.69-2.35-1.04-3.61-1.26-.22.61-.11,1.06-.41,1.65-1.21-.35-2.4-.67-3.23-1.54-.59-.62-.78-1.5-.44-2.31.23-.55.98-.9,1.78-1.01,2.34-.3,4.39.69,6.21,2.14.61-.54,1.1-1.12,1.4-1.82-1.45-1.32-3.12-2.14-4.99-2.71v-2.26c-.84-.1-1.56-.29-2.38-.14l-.34,2.07c-1.88.03-3.82.81-4.52,2.67-.83,2.2.25,4.58,2.11,5.91,1.18.85,2.5,1.28,3.87,1.66l.44-1.79c1.73.25,4.79,1.7,3.97,3.76-1.09,2.74-6.72.91-8.63-1.36-.57.56-.97,1.11-1.5,1.81,1.44,1.78,3.47,2.78,5.68,3.37l-.25,2.24Z"/>
</svg>