<svg width="1472" height="252" viewBox="0 0 1472 252" fill="none" xmlns="http://www.w3.org/2000/svg">
<g filter="url(#filter0_dd_33_8)">
<mask id="path-1-outside-1_33_8" maskUnits="userSpaceOnUse" x="10" y="11" width="1451" height="230" fill="black">
<rect fill="white" x="10" y="11" width="1451" height="230"/>
<path d="M170.439 133.168C182.346 157.64 172.202 185.91 148.946 199.394C136.13 206.838 122.86 210.28 106.965 210.88L99.8032 236L68.6206 235.952L76.1408 209.932C53.0293 205.14 32.1973 196.346 16 178.268L37.1419 156.093C54.1932 174.076 76.0926 182.713 100.21 183.06C117.867 183.313 142.39 176.666 141.887 156.543C141.433 137.715 115.904 133.318 100.513 129.221L94.0529 149.951C81.0372 146.904 68.9236 143.311 57.3748 137.415C40.172 128.628 30.6341 111.497 32.5003 92.4168C35.9299 57.7532 68.3727 42.872 99.8583 40.7247L107.372 16L138.051 16.1977L130.683 42.1153C148.795 46.8599 169.737 55.1014 182.904 70.1871L162.568 91.7147C144.249 74.9862 121.248 66.69 97.3309 69.1918C81.1887 70.8415 64.3854 78.8786 65.9004 96.5615C67.264 112.043 91.2776 117.339 105.003 120.434L111.056 100.754C130.38 104.701 160.853 113.59 170.439 133.168Z"/>
<path d="M622.167 205.583L591.79 206.088L556.524 152.998L539.218 170.027L539.169 205.883L514.192 205.938V43.3221L539.114 43.2199L539.473 138.962L588.361 89.6699L620.246 90.2152L574.89 136.065L622.167 205.583Z"/>
<path d="M345.924 99.6564C334.871 89.4175 319.892 85.5728 304.852 86.2204C283.91 87.168 265.901 98.259 256.714 116.883C246.171 138.26 246.873 163.68 259.689 183.906C270.591 201.037 289.557 209.026 309.638 209.23C332.391 209.428 352.624 198.439 362.465 177.069L340.263 168.575C334.512 181.711 324.32 187.055 312.007 187.9C291.32 189.346 274.62 174.117 274.365 153.189L363.973 153.141C366.143 133.311 360.847 113.386 345.91 99.6496L345.924 99.6564ZM275.439 134.715C277.457 122.329 285.528 112.942 295.169 109.043C307.276 104.101 320.195 106.398 329.678 114.688C335.18 119.48 337.956 125.574 339.216 134.565L275.439 134.715Z"/>
<path d="M480.84 105.151C469.636 91.3669 452.233 85.3203 434.472 86.2747C413.737 87.3245 396.327 98.0133 386.741 116.194C377.658 133.277 376.804 153.605 383.208 171.778C391.583 195.399 413.179 208.835 438.054 209.237C461.413 209.639 481.949 199.046 492.244 177.123L470.248 168.581C463.94 182.119 452.743 187.812 439.272 188.009C419.143 188.309 403.6 172.576 404.406 153.148L493.814 153.196C495.681 135.915 491.845 118.736 480.847 105.151H480.84ZM404.86 134.667C407.587 120.782 417.476 110.093 430.947 107.196C449.768 103.249 467.625 115.785 468.94 134.667H404.86Z"/>
<path d="M1345.84 153.196C1349.77 118.034 1328.33 86.3223 1290.59 86.1178C1266.58 86.0155 1246.04 98.9062 1236.76 120.829C1229.95 137.06 1229.64 155.241 1235.65 171.874C1244.28 195.896 1266.42 209.435 1291.75 209.182C1314.46 208.985 1334.28 198.493 1344.38 177.068L1322.18 168.677C1315.97 182.263 1304.87 187.907 1291.75 187.907C1271.52 188.507 1255.63 172.576 1256.79 153.148L1345.84 153.196ZM1292.96 106.5C1307.54 108.6 1319.2 117.939 1321.07 134.62L1257.04 134.667C1260.12 116.937 1275.26 105.103 1292.96 106.5Z"/>
<path d="M1015.61 93.8144C995.58 83.0234 971.463 83.5278 952.042 95.2119C926.913 110.298 919.648 143.359 928.635 170.129C936.403 193.402 957.194 207.785 981.765 209.135C1009.31 210.635 1033.79 195.099 1041.96 168.234C1050.39 140.517 1041.66 107.803 1015.63 93.8144H1015.61ZM1018.09 162.583C1013.95 176.564 1002.19 185.855 989.278 187.157C974.947 188.657 961.429 182.161 954.618 169.427C948.613 158.24 948.062 145.104 951.34 133.018C955.024 119.384 966.477 110.093 979.19 108.096C993.872 105.798 1008.15 112.343 1015.06 125.179C1021.22 136.617 1021.92 149.753 1018.09 162.59L1018.09 162.583Z"/>
<path d="M797.349 205.985L772.674 205.835L772.371 131.968C772.323 123.979 767.929 115.539 761.421 111.538C746.994 102.799 727.718 109.193 721.107 124.926C717.877 132.466 717.423 140.012 717.375 147.551L717.326 205.883L692.555 205.733L692.507 89.8126L715.97 89.6149L716.775 104.748C732.215 81.0734 769.403 81.1279 785.091 97.8087C793.065 106.2 797.252 117.884 797.252 129.725L797.356 205.992L797.349 205.985Z"/>
<path d="M1435.75 203.341C1408.86 216.074 1368.59 208.037 1358.2 177.021L1380.05 168.179C1386.71 188.057 1413.65 193.954 1427.12 183.21C1430.46 180.565 1431.92 175.316 1431.16 171.172C1428.08 153.543 1391.04 159.583 1371.52 141.655C1363.6 134.415 1361.73 123.972 1363.85 113.338C1369.05 87.7677 1407.94 79.4785 1433.73 91.9124C1442.51 96.1593 1449.32 103.051 1451.84 112.043L1431.35 120.482C1427.77 114.088 1423.78 109.991 1417.53 107.946C1405.07 103.801 1387.51 107.946 1387.15 119.384C1386.5 139.01 1434.99 132.916 1449.92 153.843C1462.08 170.926 1455.32 194.049 1435.74 203.341H1435.75Z"/>
<path d="M1220.01 174.273C1212.39 196.449 1192.01 208.487 1169.5 209.237C1137.97 210.239 1112.14 188.807 1108.2 157.845C1105.77 138.519 1110.01 119.037 1123.59 104.503C1138.83 88.1222 1161.84 82.8801 1183.58 88.1222C1200.38 92.1646 1214.05 103.303 1219.8 120.039L1198.05 128.628C1194.42 121.988 1190.74 115.39 1184.08 111.845C1166.42 102.506 1145.33 109.145 1136.91 127.278C1130.7 140.762 1130.9 157.197 1138.32 170.531C1145.13 182.665 1156.99 188.112 1169.9 187.41C1182.46 186.762 1192.56 178.718 1198.11 166.032L1220.01 174.273Z"/>
<path d="M922.423 89.9151L876.662 205.788H850.472L804.462 89.8197L831.299 89.5197L863.543 175.869L896.185 89.7174L922.423 89.9151Z"/>
<path d="M229.326 43.1721H204.149V205.986H229.326V43.1721Z"/>
<path d="M663.639 43.0698H638.31V206.136H663.639V43.0698Z"/>
<path d="M1089.18 89.5675H1064.45V205.986H1089.18V89.5675Z"/>
<path d="M1093.06 55.8582C1093.06 64.6997 1085.79 71.8914 1076.86 71.8914C1067.93 71.8914 1060.72 64.6997 1060.72 55.8582C1060.72 47.0168 1067.94 39.8795 1076.86 39.8795C1085.79 39.8795 1093.06 47.0236 1093.06 55.8582Z"/>
</mask>
<path d="M170.439 133.168C182.346 157.64 172.202 185.91 148.946 199.394C136.13 206.838 122.86 210.28 106.965 210.88L99.8032 236L68.6206 235.952L76.1408 209.932C53.0293 205.14 32.1973 196.346 16 178.268L37.1419 156.093C54.1932 174.076 76.0926 182.713 100.21 183.06C117.867 183.313 142.39 176.666 141.887 156.543C141.433 137.715 115.904 133.318 100.513 129.221L94.0529 149.951C81.0372 146.904 68.9236 143.311 57.3748 137.415C40.172 128.628 30.6341 111.497 32.5003 92.4168C35.9299 57.7532 68.3727 42.872 99.8583 40.7247L107.372 16L138.051 16.1977L130.683 42.1153C148.795 46.8599 169.737 55.1014 182.904 70.1871L162.568 91.7147C144.249 74.9862 121.248 66.69 97.3309 69.1918C81.1887 70.8415 64.3854 78.8786 65.9004 96.5615C67.264 112.043 91.2776 117.339 105.003 120.434L111.056 100.754C130.38 104.701 160.853 113.59 170.439 133.168Z" fill="url(#paint0_linear_33_8)"/>
<path d="M622.167 205.583L591.79 206.088L556.524 152.998L539.218 170.027L539.169 205.883L514.192 205.938V43.3221L539.114 43.2199L539.473 138.962L588.361 89.6699L620.246 90.2152L574.89 136.065L622.167 205.583Z" fill="url(#paint1_linear_33_8)"/>
<path d="M345.924 99.6564C334.871 89.4175 319.892 85.5728 304.852 86.2204C283.91 87.168 265.901 98.259 256.714 116.883C246.171 138.26 246.873 163.68 259.689 183.906C270.591 201.037 289.557 209.026 309.638 209.23C332.391 209.428 352.624 198.439 362.465 177.069L340.263 168.575C334.512 181.711 324.32 187.055 312.007 187.9C291.32 189.346 274.62 174.117 274.365 153.189L363.973 153.141C366.143 133.311 360.847 113.386 345.91 99.6496L345.924 99.6564ZM275.439 134.715C277.457 122.329 285.528 112.942 295.169 109.043C307.276 104.101 320.195 106.398 329.678 114.688C335.18 119.48 337.956 125.574 339.216 134.565L275.439 134.715Z" fill="url(#paint2_linear_33_8)"/>
<path d="M480.84 105.151C469.636 91.3669 452.233 85.3203 434.472 86.2747C413.737 87.3245 396.327 98.0133 386.741 116.194C377.658 133.277 376.804 153.605 383.208 171.778C391.583 195.399 413.179 208.835 438.054 209.237C461.413 209.639 481.949 199.046 492.244 177.123L470.248 168.581C463.94 182.119 452.743 187.812 439.272 188.009C419.143 188.309 403.6 172.576 404.406 153.148L493.814 153.196C495.681 135.915 491.845 118.736 480.847 105.151H480.84ZM404.86 134.667C407.587 120.782 417.476 110.093 430.947 107.196C449.768 103.249 467.625 115.785 468.94 134.667H404.86Z" fill="url(#paint3_linear_33_8)"/>
<path d="M1345.84 153.196C1349.77 118.034 1328.33 86.3223 1290.59 86.1178C1266.58 86.0155 1246.04 98.9062 1236.76 120.829C1229.95 137.06 1229.64 155.241 1235.65 171.874C1244.28 195.896 1266.42 209.435 1291.75 209.182C1314.46 208.985 1334.28 198.493 1344.38 177.068L1322.18 168.677C1315.97 182.263 1304.87 187.907 1291.75 187.907C1271.52 188.507 1255.63 172.576 1256.79 153.148L1345.84 153.196ZM1292.96 106.5C1307.54 108.6 1319.2 117.939 1321.07 134.62L1257.04 134.667C1260.12 116.937 1275.26 105.103 1292.96 106.5Z" fill="url(#paint4_linear_33_8)"/>
<path d="M1015.61 93.8144C995.58 83.0234 971.463 83.5278 952.042 95.2119C926.913 110.298 919.648 143.359 928.635 170.129C936.403 193.402 957.194 207.785 981.765 209.135C1009.31 210.635 1033.79 195.099 1041.96 168.234C1050.39 140.517 1041.66 107.803 1015.63 93.8144H1015.61ZM1018.09 162.583C1013.95 176.564 1002.19 185.855 989.278 187.157C974.947 188.657 961.429 182.161 954.618 169.427C948.613 158.24 948.062 145.104 951.34 133.018C955.024 119.384 966.477 110.093 979.19 108.096C993.872 105.798 1008.15 112.343 1015.06 125.179C1021.22 136.617 1021.92 149.753 1018.09 162.59L1018.09 162.583Z" fill="url(#paint5_linear_33_8)"/>
<path d="M797.349 205.985L772.674 205.835L772.371 131.968C772.323 123.979 767.929 115.539 761.421 111.538C746.994 102.799 727.718 109.193 721.107 124.926C717.877 132.466 717.423 140.012 717.375 147.551L717.326 205.883L692.555 205.733L692.507 89.8126L715.97 89.6149L716.775 104.748C732.215 81.0734 769.403 81.1279 785.091 97.8087C793.065 106.2 797.252 117.884 797.252 129.725L797.356 205.992L797.349 205.985Z" fill="url(#paint6_linear_33_8)"/>
<path d="M1435.75 203.341C1408.86 216.074 1368.59 208.037 1358.2 177.021L1380.05 168.179C1386.71 188.057 1413.65 193.954 1427.12 183.21C1430.46 180.565 1431.92 175.316 1431.16 171.172C1428.08 153.543 1391.04 159.583 1371.52 141.655C1363.6 134.415 1361.73 123.972 1363.85 113.338C1369.05 87.7677 1407.94 79.4785 1433.73 91.9124C1442.51 96.1593 1449.32 103.051 1451.84 112.043L1431.35 120.482C1427.77 114.088 1423.78 109.991 1417.53 107.946C1405.07 103.801 1387.51 107.946 1387.15 119.384C1386.5 139.01 1434.99 132.916 1449.92 153.843C1462.08 170.926 1455.32 194.049 1435.74 203.341H1435.75Z" fill="url(#paint7_linear_33_8)"/>
<path d="M1220.01 174.273C1212.39 196.449 1192.01 208.487 1169.5 209.237C1137.97 210.239 1112.14 188.807 1108.2 157.845C1105.77 138.519 1110.01 119.037 1123.59 104.503C1138.83 88.1222 1161.84 82.8801 1183.58 88.1222C1200.38 92.1646 1214.05 103.303 1219.8 120.039L1198.05 128.628C1194.42 121.988 1190.74 115.39 1184.08 111.845C1166.42 102.506 1145.33 109.145 1136.91 127.278C1130.7 140.762 1130.9 157.197 1138.32 170.531C1145.13 182.665 1156.99 188.112 1169.9 187.41C1182.46 186.762 1192.56 178.718 1198.11 166.032L1220.01 174.273Z" fill="url(#paint8_linear_33_8)"/>
<path d="M922.423 89.9151L876.662 205.788H850.472L804.462 89.8197L831.299 89.5197L863.543 175.869L896.185 89.7174L922.423 89.9151Z" fill="url(#paint9_linear_33_8)"/>
<path d="M229.326 43.1721H204.149V205.986H229.326V43.1721Z" fill="url(#paint10_linear_33_8)"/>
<path d="M663.639 43.0698H638.31V206.136H663.639V43.0698Z" fill="url(#paint11_linear_33_8)"/>
<path d="M1089.18 89.5675H1064.45V205.986H1089.18V89.5675Z" fill="url(#paint12_linear_33_8)"/>
<path d="M1093.06 55.8582C1093.06 64.6997 1085.79 71.8914 1076.86 71.8914C1067.93 71.8914 1060.72 64.6997 1060.72 55.8582C1060.72 47.0168 1067.94 39.8795 1076.86 39.8795C1085.79 39.8795 1093.06 47.0236 1093.06 55.8582Z" fill="url(#paint13_linear_33_8)"/>
<path d="M170.439 133.168C182.346 157.64 172.202 185.91 148.946 199.394C136.13 206.838 122.86 210.28 106.965 210.88L99.8032 236L68.6206 235.952L76.1408 209.932C53.0293 205.14 32.1973 196.346 16 178.268L37.1419 156.093C54.1932 174.076 76.0926 182.713 100.21 183.06C117.867 183.313 142.39 176.666 141.887 156.543C141.433 137.715 115.904 133.318 100.513 129.221L94.0529 149.951C81.0372 146.904 68.9236 143.311 57.3748 137.415C40.172 128.628 30.6341 111.497 32.5003 92.4168C35.9299 57.7532 68.3727 42.872 99.8583 40.7247L107.372 16L138.051 16.1977L130.683 42.1153C148.795 46.8599 169.737 55.1014 182.904 70.1871L162.568 91.7147C144.249 74.9862 121.248 66.69 97.3309 69.1918C81.1887 70.8415 64.3854 78.8786 65.9004 96.5615C67.264 112.043 91.2776 117.339 105.003 120.434L111.056 100.754C130.38 104.701 160.853 113.59 170.439 133.168Z" stroke="url(#paint14_linear_33_8)" stroke-width="8" mask="url(#path-1-outside-1_33_8)"/>
<path d="M622.167 205.583L591.79 206.088L556.524 152.998L539.218 170.027L539.169 205.883L514.192 205.938V43.3221L539.114 43.2199L539.473 138.962L588.361 89.6699L620.246 90.2152L574.89 136.065L622.167 205.583Z" stroke="url(#paint15_linear_33_8)" stroke-width="8" mask="url(#path-1-outside-1_33_8)"/>
<path d="M345.924 99.6564C334.871 89.4175 319.892 85.5728 304.852 86.2204C283.91 87.168 265.901 98.259 256.714 116.883C246.171 138.26 246.873 163.68 259.689 183.906C270.591 201.037 289.557 209.026 309.638 209.23C332.391 209.428 352.624 198.439 362.465 177.069L340.263 168.575C334.512 181.711 324.32 187.055 312.007 187.9C291.32 189.346 274.62 174.117 274.365 153.189L363.973 153.141C366.143 133.311 360.847 113.386 345.91 99.6496L345.924 99.6564ZM275.439 134.715C277.457 122.329 285.528 112.942 295.169 109.043C307.276 104.101 320.195 106.398 329.678 114.688C335.18 119.48 337.956 125.574 339.216 134.565L275.439 134.715Z" stroke="url(#paint16_linear_33_8)" stroke-width="8" mask="url(#path-1-outside-1_33_8)"/>
<path d="M480.84 105.151C469.636 91.3669 452.233 85.3203 434.472 86.2747C413.737 87.3245 396.327 98.0133 386.741 116.194C377.658 133.277 376.804 153.605 383.208 171.778C391.583 195.399 413.179 208.835 438.054 209.237C461.413 209.639 481.949 199.046 492.244 177.123L470.248 168.581C463.94 182.119 452.743 187.812 439.272 188.009C419.143 188.309 403.6 172.576 404.406 153.148L493.814 153.196C495.681 135.915 491.845 118.736 480.847 105.151H480.84ZM404.86 134.667C407.587 120.782 417.476 110.093 430.947 107.196C449.768 103.249 467.625 115.785 468.94 134.667H404.86Z" stroke="url(#paint17_linear_33_8)" stroke-width="8" mask="url(#path-1-outside-1_33_8)"/>
<path d="M1345.84 153.196C1349.77 118.034 1328.33 86.3223 1290.59 86.1178C1266.58 86.0155 1246.04 98.9062 1236.76 120.829C1229.95 137.06 1229.64 155.241 1235.65 171.874C1244.28 195.896 1266.42 209.435 1291.75 209.182C1314.46 208.985 1334.28 198.493 1344.38 177.068L1322.18 168.677C1315.97 182.263 1304.87 187.907 1291.75 187.907C1271.52 188.507 1255.63 172.576 1256.79 153.148L1345.84 153.196ZM1292.96 106.5C1307.54 108.6 1319.2 117.939 1321.07 134.62L1257.04 134.667C1260.12 116.937 1275.26 105.103 1292.96 106.5Z" stroke="url(#paint18_linear_33_8)" stroke-width="8" mask="url(#path-1-outside-1_33_8)"/>
<path d="M1015.61 93.8144C995.58 83.0234 971.463 83.5278 952.042 95.2119C926.913 110.298 919.648 143.359 928.635 170.129C936.403 193.402 957.194 207.785 981.765 209.135C1009.31 210.635 1033.79 195.099 1041.96 168.234C1050.39 140.517 1041.66 107.803 1015.63 93.8144H1015.61ZM1018.09 162.583C1013.95 176.564 1002.19 185.855 989.278 187.157C974.947 188.657 961.429 182.161 954.618 169.427C948.613 158.24 948.062 145.104 951.34 133.018C955.024 119.384 966.477 110.093 979.19 108.096C993.872 105.798 1008.15 112.343 1015.06 125.179C1021.22 136.617 1021.92 149.753 1018.09 162.59L1018.09 162.583Z" stroke="url(#paint19_linear_33_8)" stroke-width="8" mask="url(#path-1-outside-1_33_8)"/>
<path d="M797.349 205.985L772.674 205.835L772.371 131.968C772.323 123.979 767.929 115.539 761.421 111.538C746.994 102.799 727.718 109.193 721.107 124.926C717.877 132.466 717.423 140.012 717.375 147.551L717.326 205.883L692.555 205.733L692.507 89.8126L715.97 89.6149L716.775 104.748C732.215 81.0734 769.403 81.1279 785.091 97.8087C793.065 106.2 797.252 117.884 797.252 129.725L797.356 205.992L797.349 205.985Z" stroke="url(#paint20_linear_33_8)" stroke-width="8" mask="url(#path-1-outside-1_33_8)"/>
<path d="M1435.75 203.341C1408.86 216.074 1368.59 208.037 1358.2 177.021L1380.05 168.179C1386.71 188.057 1413.65 193.954 1427.12 183.21C1430.46 180.565 1431.92 175.316 1431.16 171.172C1428.08 153.543 1391.04 159.583 1371.52 141.655C1363.6 134.415 1361.73 123.972 1363.85 113.338C1369.05 87.7677 1407.94 79.4785 1433.73 91.9124C1442.51 96.1593 1449.32 103.051 1451.84 112.043L1431.35 120.482C1427.77 114.088 1423.78 109.991 1417.53 107.946C1405.07 103.801 1387.51 107.946 1387.15 119.384C1386.5 139.01 1434.99 132.916 1449.92 153.843C1462.08 170.926 1455.32 194.049 1435.74 203.341H1435.75Z" stroke="url(#paint21_linear_33_8)" stroke-width="8" mask="url(#path-1-outside-1_33_8)"/>
<path d="M1220.01 174.273C1212.39 196.449 1192.01 208.487 1169.5 209.237C1137.97 210.239 1112.14 188.807 1108.2 157.845C1105.77 138.519 1110.01 119.037 1123.59 104.503C1138.83 88.1222 1161.84 82.8801 1183.58 88.1222C1200.38 92.1646 1214.05 103.303 1219.8 120.039L1198.05 128.628C1194.42 121.988 1190.74 115.39 1184.08 111.845C1166.42 102.506 1145.33 109.145 1136.91 127.278C1130.7 140.762 1130.9 157.197 1138.32 170.531C1145.13 182.665 1156.99 188.112 1169.9 187.41C1182.46 186.762 1192.56 178.718 1198.11 166.032L1220.01 174.273Z" stroke="url(#paint22_linear_33_8)" stroke-width="8" mask="url(#path-1-outside-1_33_8)"/>
<path d="M922.423 89.9151L876.662 205.788H850.472L804.462 89.8197L831.299 89.5197L863.543 175.869L896.185 89.7174L922.423 89.9151Z" stroke="url(#paint23_linear_33_8)" stroke-width="8" mask="url(#path-1-outside-1_33_8)"/>
<path d="M229.326 43.1721H204.149V205.986H229.326V43.1721Z" stroke="url(#paint24_linear_33_8)" stroke-width="8" mask="url(#path-1-outside-1_33_8)"/>
<path d="M663.639 43.0698H638.31V206.136H663.639V43.0698Z" stroke="url(#paint25_linear_33_8)" stroke-width="8" mask="url(#path-1-outside-1_33_8)"/>
<path d="M1089.18 89.5675H1064.45V205.986H1089.18V89.5675Z" stroke="url(#paint26_linear_33_8)" stroke-width="8" mask="url(#path-1-outside-1_33_8)"/>
<path d="M1093.06 55.8582C1093.06 64.6997 1085.79 71.8914 1076.86 71.8914C1067.93 71.8914 1060.72 64.6997 1060.72 55.8582C1060.72 47.0168 1067.94 39.8795 1076.86 39.8795C1085.79 39.8795 1093.06 47.0236 1093.06 55.8582Z" stroke="url(#paint27_linear_33_8)" stroke-width="8" mask="url(#path-1-outside-1_33_8)"/>
</g>
<defs>
<filter id="filter0_dd_33_8" x="6.55371" y="11.9808" width="1457.46" height="236.024" filterUnits="userSpaceOnUse" color-interpolation-filters="sRGB">
<feFlood flood-opacity="0" result="BackgroundImageFix"/>
<feColorMatrix in="SourceAlpha" type="matrix" values="0 0 0 0 0 0 0 0 0 0 0 0 0 0 0 0 0 0 127 0" result="hardAlpha"/>
<feOffset dy="4"/>
<feGaussianBlur stdDeviation="2"/>
<feComposite in2="hardAlpha" operator="out"/>
<feColorMatrix type="matrix" values="0 0 0 0 0.323355 0 0 0 0 0.323355 0 0 0 0 0.323355 0 0 0 0.44 0"/>
<feBlend mode="normal" in2="BackgroundImageFix" result="effect1_dropShadow_33_8"/>
<feColorMatrix in="SourceAlpha" type="matrix" values="0 0 0 0 0 0 0 0 0 0 0 0 0 0 0 0 0 0 127 0" result="hardAlpha"/>
<feOffset dy="4"/>
<feGaussianBlur stdDeviation="2"/>
<feComposite in2="hardAlpha" operator="out"/>
<feColorMatrix type="matrix" values="0 0 0 0 0.323355 0 0 0 0 0.323355 0 0 0 0 0.323355 0 0 0 0.44 0"/>
<feBlend mode="normal" in2="effect1_dropShadow_33_8" result="effect2_dropShadow_33_8"/>
<feBlend mode="normal" in="SourceGraphic" in2="effect2_dropShadow_33_8" result="shape"/>
</filter>
<linearGradient id="paint0_linear_33_8" x1="736" y1="16" x2="736" y2="236" gradientUnits="userSpaceOnUse">
<stop stop-color="white"/>
<stop offset="1" stop-color="#D0CFCF"/>
</linearGradient>
<linearGradient id="paint1_linear_33_8" x1="736" y1="16" x2="736" y2="236" gradientUnits="userSpaceOnUse">
<stop stop-color="white"/>
<stop offset="1" stop-color="#D0CFCF"/>
</linearGradient>
<linearGradient id="paint2_linear_33_8" x1="736" y1="16" x2="736" y2="236" gradientUnits="userSpaceOnUse">
<stop stop-color="white"/>
<stop offset="1" stop-color="#D0CFCF"/>
</linearGradient>
<linearGradient id="paint3_linear_33_8" x1="736" y1="16" x2="736" y2="236" gradientUnits="userSpaceOnUse">
<stop stop-color="white"/>
<stop offset="1" stop-color="#D0CFCF"/>
</linearGradient>
<linearGradient id="paint4_linear_33_8" x1="736" y1="16" x2="736" y2="236" gradientUnits="userSpaceOnUse">
<stop stop-color="white"/>
<stop offset="1" stop-color="#D0CFCF"/>
</linearGradient>
<linearGradient id="paint5_linear_33_8" x1="736" y1="16" x2="736" y2="236" gradientUnits="userSpaceOnUse">
<stop stop-color="white"/>
<stop offset="1" stop-color="#D0CFCF"/>
</linearGradient>
<linearGradient id="paint6_linear_33_8" x1="736" y1="16" x2="736" y2="236" gradientUnits="userSpaceOnUse">
<stop stop-color="white"/>
<stop offset="1" stop-color="#D0CFCF"/>
</linearGradient>
<linearGradient id="paint7_linear_33_8" x1="736" y1="16" x2="736" y2="236" gradientUnits="userSpaceOnUse">
<stop stop-color="white"/>
<stop offset="1" stop-color="#D0CFCF"/>
</linearGradient>
<linearGradient id="paint8_linear_33_8" x1="736" y1="16" x2="736" y2="236" gradientUnits="userSpaceOnUse">
<stop stop-color="white"/>
<stop offset="1" stop-color="#D0CFCF"/>
</linearGradient>
<linearGradient id="paint9_linear_33_8" x1="736" y1="16" x2="736" y2="236" gradientUnits="userSpaceOnUse">
<stop stop-color="white"/>
<stop offset="1" stop-color="#D0CFCF"/>
</linearGradient>
<linearGradient id="paint10_linear_33_8" x1="736" y1="16" x2="736" y2="236" gradientUnits="userSpaceOnUse">
<stop stop-color="white"/>
<stop offset="1" stop-color="#D0CFCF"/>
</linearGradient>
<linearGradient id="paint11_linear_33_8" x1="736" y1="16" x2="736" y2="236" gradientUnits="userSpaceOnUse">
<stop stop-color="white"/>
<stop offset="1" stop-color="#D0CFCF"/>
</linearGradient>
<linearGradient id="paint12_linear_33_8" x1="736" y1="16" x2="736" y2="236" gradientUnits="userSpaceOnUse">
<stop stop-color="white"/>
<stop offset="1" stop-color="#D0CFCF"/>
</linearGradient>
<linearGradient id="paint13_linear_33_8" x1="736" y1="16" x2="736" y2="236" gradientUnits="userSpaceOnUse">
<stop stop-color="white"/>
<stop offset="1" stop-color="#D0CFCF"/>
</linearGradient>
<linearGradient id="paint14_linear_33_8" x1="736" y1="16" x2="736" y2="236" gradientUnits="userSpaceOnUse">
<stop stop-color="white"/>
<stop offset="1" stop-color="white"/>
</linearGradient>
<linearGradient id="paint15_linear_33_8" x1="736" y1="16" x2="736" y2="236" gradientUnits="userSpaceOnUse">
<stop stop-color="white"/>
<stop offset="1" stop-color="white"/>
</linearGradient>
<linearGradient id="paint16_linear_33_8" x1="736" y1="16" x2="736" y2="236" gradientUnits="userSpaceOnUse">
<stop stop-color="white"/>
<stop offset="1" stop-color="white"/>
</linearGradient>
<linearGradient id="paint17_linear_33_8" x1="736" y1="16" x2="736" y2="236" gradientUnits="userSpaceOnUse">
<stop stop-color="white"/>
<stop offset="1" stop-color="white"/>
</linearGradient>
<linearGradient id="paint18_linear_33_8" x1="736" y1="16" x2="736" y2="236" gradientUnits="userSpaceOnUse">
<stop stop-color="white"/>
<stop offset="1" stop-color="white"/>
</linearGradient>
<linearGradient id="paint19_linear_33_8" x1="736" y1="16" x2="736" y2="236" gradientUnits="userSpaceOnUse">
<stop stop-color="white"/>
<stop offset="1" stop-color="white"/>
</linearGradient>
<linearGradient id="paint20_linear_33_8" x1="736" y1="16" x2="736" y2="236" gradientUnits="userSpaceOnUse">
<stop stop-color="white"/>
<stop offset="1" stop-color="white"/>
</linearGradient>
<linearGradient id="paint21_linear_33_8" x1="736" y1="16" x2="736" y2="236" gradientUnits="userSpaceOnUse">
<stop stop-color="white"/>
<stop offset="1" stop-color="white"/>
</linearGradient>
<linearGradient id="paint22_linear_33_8" x1="736" y1="16" x2="736" y2="236" gradientUnits="userSpaceOnUse">
<stop stop-color="white"/>
<stop offset="1" stop-color="white"/>
</linearGradient>
<linearGradient id="paint23_linear_33_8" x1="736" y1="16" x2="736" y2="236" gradientUnits="userSpaceOnUse">
<stop stop-color="white"/>
<stop offset="1" stop-color="white"/>
</linearGradient>
<linearGradient id="paint24_linear_33_8" x1="736" y1="16" x2="736" y2="236" gradientUnits="userSpaceOnUse">
<stop stop-color="white"/>
<stop offset="1" stop-color="white"/>
</linearGradient>
<linearGradient id="paint25_linear_33_8" x1="736" y1="16" x2="736" y2="236" gradientUnits="userSpaceOnUse">
<stop stop-color="white"/>
<stop offset="1" stop-color="white"/>
</linearGradient>
<linearGradient id="paint26_linear_33_8" x1="736" y1="16" x2="736" y2="236" gradientUnits="userSpaceOnUse">
<stop stop-color="white"/>
<stop offset="1" stop-color="white"/>
</linearGradient>
<linearGradient id="paint27_linear_33_8" x1="736" y1="16" x2="736" y2="236" gradientUnits="userSpaceOnUse">
<stop stop-color="white"/>
<stop offset="1" stop-color="white"/>
</linearGradient>
</defs>
</svg>
