<svg width="1440" height="220" viewBox="0 0 1440 220" fill="none" xmlns="http://www.w3.org/2000/svg">
<path d="M154.439 117.168C166.346 141.64 156.202 169.91 132.946 183.394C120.13 190.838 106.86 194.28 90.9653 194.88L83.8032 220L52.6206 219.952L60.1408 193.932C37.0293 189.14 16.1973 180.346 0 162.268L21.1419 140.093C38.1932 158.076 60.0926 166.713 84.2095 167.06C101.867 167.313 126.39 160.666 125.887 140.543C125.433 121.715 99.9041 117.318 84.5126 113.221L78.0529 133.951C65.0372 130.904 52.9236 127.311 41.3748 121.415C24.172 112.628 14.6341 95.4972 16.5003 76.4168C19.9299 41.7532 52.3727 26.872 83.8583 24.7247L91.3716 0L122.051 0.197688L114.683 26.1153C132.795 30.8599 153.737 39.1014 166.904 54.1871L146.568 75.7147C128.249 58.9862 105.248 50.69 81.3309 53.1918C65.1887 54.8415 48.3854 62.8786 49.9004 80.5615C51.264 96.0425 75.2776 101.339 89.0026 104.434L95.056 84.7538C114.38 88.7008 144.853 97.5899 154.439 117.168Z" fill="white"/>
<path d="M606.167 189.583L575.79 190.088L540.524 136.998L523.218 154.027L523.169 189.883L498.192 189.938V27.3221L523.114 27.2199L523.473 122.962L572.361 73.6699L604.246 74.2152L558.89 120.065L606.167 189.583Z" fill="white"/>
<path d="M329.924 83.6564C318.871 73.4175 303.892 69.5728 288.852 70.2204C267.91 71.168 249.901 82.259 240.714 100.883C230.171 122.26 230.873 147.68 243.689 167.906C254.591 185.037 273.557 193.026 293.638 193.23C316.391 193.428 336.624 182.439 346.465 161.069L324.263 152.575C318.512 165.711 308.32 171.055 296.007 171.9C275.32 173.346 258.62 158.117 258.365 137.189L347.973 137.141C350.143 117.311 344.847 97.3856 329.91 83.6496L329.924 83.6564ZM259.439 118.715C261.457 106.329 269.528 96.9425 279.169 93.0432C291.276 88.101 304.195 90.3983 313.678 98.6876C319.18 103.48 321.956 109.574 323.216 118.565L259.439 118.715Z" fill="white"/>
<path d="M464.84 89.1505C453.636 75.3669 436.233 69.3203 418.472 70.2747C397.737 71.3245 380.327 82.0133 370.741 100.194C361.658 117.277 360.804 137.605 367.208 155.778C375.583 179.399 397.179 192.835 422.054 193.237C445.413 193.639 465.949 183.046 476.244 161.123L454.248 152.581C447.94 166.119 436.743 171.812 423.272 172.009C403.143 172.309 387.6 156.576 388.406 137.148L477.814 137.196C479.681 119.915 475.845 102.736 464.847 89.1505H464.84ZM388.86 118.667C391.587 104.782 401.476 94.0927 414.947 91.1956C433.768 87.2486 451.625 99.7848 452.94 118.667H388.86Z" fill="white"/>
<path d="M1329.84 137.196C1333.77 102.034 1312.33 70.3223 1274.59 70.1178C1250.58 70.0155 1230.04 82.9062 1220.76 104.829C1213.95 121.06 1213.64 139.241 1219.65 155.874C1228.28 179.896 1250.42 193.435 1275.75 193.182C1298.46 192.985 1318.28 182.493 1328.38 161.068L1306.18 152.677C1299.97 166.263 1288.87 171.907 1275.75 171.907C1255.52 172.507 1239.63 156.576 1240.79 137.148L1329.84 137.196ZM1276.96 90.5001C1291.54 92.5997 1303.2 101.939 1305.07 118.62L1241.04 118.667C1244.12 100.937 1259.26 89.1027 1276.96 90.5001Z" fill="white"/>
<path d="M999.613 77.8144C979.58 67.0234 955.463 67.5278 936.042 79.2119C910.913 94.2976 903.648 127.359 912.635 154.129C920.403 177.402 941.194 191.785 965.765 193.135C993.312 194.635 1017.79 179.099 1025.96 152.234C1034.39 124.517 1025.66 91.8026 999.627 77.8144H999.613ZM1002.09 146.583C997.946 160.564 986.191 169.855 973.278 171.157C958.947 172.657 945.429 166.161 938.618 153.427C932.613 142.24 932.062 129.104 935.34 117.018C939.024 103.384 950.477 94.0931 963.19 92.0957C977.872 89.7985 992.148 96.3426 999.062 109.179C1005.22 120.617 1005.92 133.753 1002.09 146.59L1002.09 146.583Z" fill="white"/>
<path d="M781.349 189.985L756.674 189.835L756.371 115.968C756.323 107.979 751.929 99.5393 745.421 95.5379C730.994 86.7987 711.718 93.1929 705.107 108.926C701.877 116.466 701.423 124.012 701.375 131.551L701.326 189.883L676.555 189.733L676.507 73.8126L699.97 73.6149L700.775 88.7483C716.215 65.0734 753.403 65.1279 769.091 81.8087C777.065 90.2003 781.252 101.884 781.252 113.725L781.356 189.992L781.349 189.985Z" fill="white"/>
<path d="M1419.75 187.341C1392.86 200.074 1352.59 192.037 1342.2 161.021L1364.05 152.179C1370.71 172.057 1397.65 177.954 1411.12 167.21C1414.46 164.565 1415.92 159.316 1415.16 155.172C1412.08 137.543 1375.04 143.583 1355.52 125.655C1347.6 118.415 1345.73 107.972 1347.85 97.3377C1353.05 71.7677 1391.94 63.4785 1417.73 75.9124C1426.51 80.1593 1433.32 87.0511 1435.84 96.0425L1415.35 104.482C1411.77 98.0876 1407.78 93.9907 1401.53 91.9456C1389.07 87.801 1371.51 91.9456 1371.15 103.384C1370.5 123.01 1418.99 116.916 1433.92 137.843C1446.08 154.926 1439.32 178.049 1419.74 187.341H1419.75Z" fill="white"/>
<path d="M1204.01 158.273C1196.39 180.449 1176.01 192.487 1153.5 193.237C1121.97 194.239 1096.14 172.807 1092.2 141.845C1089.77 122.519 1094.01 103.037 1107.59 88.5031C1122.83 72.1222 1145.84 66.8801 1167.58 72.1222C1184.38 76.1646 1198.05 87.3033 1203.8 104.039L1182.05 112.628C1178.42 105.988 1174.74 99.3896 1168.08 95.8449C1150.42 86.5058 1129.33 93.1454 1120.91 111.278C1114.7 124.762 1114.9 141.197 1122.32 154.531C1129.13 166.665 1140.99 172.112 1153.9 171.41C1166.46 170.762 1176.56 162.718 1182.11 150.032L1204.01 158.273Z" fill="white"/>
<path d="M906.423 73.9151L860.662 189.788H834.472L788.462 73.8197L815.299 73.5197L847.543 159.869L880.185 73.7174L906.423 73.9151Z" fill="white"/>
<path d="M213.326 27.1721H188.149V189.986H213.326V27.1721Z" fill="white"/>
<path d="M647.639 27.0698H622.31V190.136H647.639V27.0698Z" fill="white"/>
<path d="M1073.18 73.5675H1048.45V189.986H1073.18V73.5675Z" fill="white"/>
<path d="M1077.06 39.8582C1077.06 48.6997 1069.79 55.8914 1060.86 55.8914C1051.93 55.8914 1044.72 48.6997 1044.72 39.8582C1044.72 31.0168 1051.94 23.8795 1060.86 23.8795C1069.79 23.8795 1077.06 31.0236 1077.06 39.8582Z" fill="white"/>
</svg>
