<svg width="1000" height="1000" viewBox="0 0 1000 1000" fill="none" xmlns="http://www.w3.org/2000/svg">
<path d="M796.873 530.312C846.674 633.754 804.257 753.25 706.981 810.257C653.383 841.719 597.893 856.286 531.43 858.81L501.471 965L371.069 964.79L402.514 854.8C305.868 834.526 218.723 797.372 151 720.947L239.406 627.207C310.731 703.211 402.304 739.735 503.167 741.207C577.014 742.258 679.573 714.189 677.457 629.1C675.565 549.506 568.788 530.929 504.428 513.614L477.426 601.227C422.986 588.342 372.344 573.144 324.029 548.23C252.073 511.076 212.193 438.661 219.998 358.016C234.347 211.503 370.018 148.579 501.695 139.508L533.14 35L661.426 35.8412L630.612 145.41C706.365 165.474 793.93 200.3 849 264.065L763.971 355.057C687.378 284.338 591.153 249.288 491.144 259.845C423.617 266.813 353.357 300.798 359.691 375.541C365.394 440.988 465.823 463.365 523.219 476.46L548.54 393.277C629.351 409.961 756.797 447.536 796.887 530.298L796.873 530.312Z" fill="white"/>
<g filter="url(#filter0_d_33_5)">
<path d="M796.873 530.312C846.674 633.754 804.257 753.25 706.981 810.257C653.383 841.719 597.893 856.286 531.43 858.81L501.471 965L371.069 964.79L402.514 854.8C305.868 834.526 218.723 797.372 151 720.947L239.406 627.207C310.731 703.211 402.304 739.735 503.167 741.207C577.014 742.258 679.573 714.189 677.457 629.1C675.565 549.506 568.788 530.929 504.428 513.614L477.426 601.227C422.986 588.342 372.344 573.144 324.029 548.23C252.073 511.076 212.193 438.661 219.998 358.016C234.347 211.503 370.018 148.579 501.695 139.508L533.14 35L661.426 35.8412L630.612 145.41C706.365 165.474 793.93 200.3 849 264.065L763.971 355.057C687.378 284.338 591.153 249.288 491.144 259.845C423.617 266.813 353.357 300.798 359.691 375.541C365.394 440.988 465.823 463.365 523.219 476.46L548.54 393.277C629.351 409.961 756.797 447.536 796.887 530.298L796.873 530.312Z" fill="url(#paint0_linear_33_5)"/>
<path d="M533.153 33L661.439 33.8408L664.062 33.8584L663.352 36.3828L633.085 144.001C708.488 164.172 795.513 199.074 850.514 262.758L851.688 264.117L850.461 265.431L765.433 356.423L764.075 357.875L762.614 356.526C686.402 286.16 590.735 251.343 491.354 261.834H491.35C457.798 265.296 423.739 275.461 398.911 293.884C374.177 312.238 358.585 338.78 361.684 375.367L361.752 376.106C364.838 407.3 390.328 428.598 422.917 443.82C454.998 458.805 493.284 467.58 521.848 474.095L546.627 392.694L547.158 390.949L548.944 391.318C589.417 399.674 641.651 413.277 688.826 435.194C735.953 457.09 778.342 487.427 798.687 529.426L799.307 530.706L799.286 530.726C848.613 634.886 805.691 754.726 707.993 811.98L707.994 811.981C654.463 843.404 599.06 858.057 532.961 860.748L503.396 965.543L502.984 967.003L501.468 967L371.066 966.79L368.419 966.785L369.146 964.24L400.002 856.31C303.946 835.887 217.118 798.576 149.503 722.273L148.29 720.905L149.545 719.575L237.951 625.835L239.409 624.288L240.864 625.838C311.788 701.415 402.83 737.742 503.196 739.207H503.195C539.909 739.73 583.664 733.004 617.895 715.672C652.064 698.371 676.49 670.675 675.457 629.149V629.147C674.538 590.473 648.216 566.437 613.504 549.806C579.411 533.471 537.877 524.589 505.771 516.042L479.337 601.816L478.786 603.604L476.965 603.174C422.461 590.274 371.638 575.03 323.112 550.008L323.111 550.007C250.436 512.481 210.123 439.29 218.008 357.823V357.82C225.247 283.9 263.128 231.033 315.73 195.562C367.909 160.378 434.547 142.32 500.177 137.612L531.225 34.4238L531.656 32.9902L533.153 33Z" stroke="url(#paint1_linear_33_5)" stroke-width="4"/>
</g>
<defs>
<filter id="filter0_d_33_5" x="141.581" y="30.9805" width="716.795" height="946.024" filterUnits="userSpaceOnUse" color-interpolation-filters="sRGB">
<feFlood flood-opacity="0" result="BackgroundImageFix"/>
<feColorMatrix in="SourceAlpha" type="matrix" values="0 0 0 0 0 0 0 0 0 0 0 0 0 0 0 0 0 0 127 0" result="hardAlpha"/>
<feOffset dy="4"/>
<feGaussianBlur stdDeviation="2"/>
<feComposite in2="hardAlpha" operator="out"/>
<feColorMatrix type="matrix" values="0 0 0 0 0.323355 0 0 0 0 0.323355 0 0 0 0 0.323355 0 0 0 0.44 0"/>
<feBlend mode="normal" in2="BackgroundImageFix" result="effect1_dropShadow_33_5"/>
<feBlend mode="normal" in="SourceGraphic" in2="effect1_dropShadow_33_5" result="shape"/>
</filter>
<linearGradient id="paint0_linear_33_5" x1="500" y1="35" x2="500" y2="965" gradientUnits="userSpaceOnUse">
<stop stop-color="white"/>
<stop offset="1" stop-color="#D0CFCF"/>
</linearGradient>
<linearGradient id="paint1_linear_33_5" x1="500" y1="35" x2="500" y2="965" gradientUnits="userSpaceOnUse">
<stop stop-color="white"/>
<stop offset="1" stop-color="white"/>
</linearGradient>
</defs>
</svg>
