<svg width="936" height="382" viewBox="0 0 936 382" fill="none" xmlns="http://www.w3.org/2000/svg">
<path d="M154.439 117.168C166.346 141.64 156.202 169.91 132.946 183.394C120.13 190.838 106.86 194.28 90.9653 194.88L83.8032 220L52.6206 219.952L60.1408 193.932C37.0293 189.14 16.1973 180.346 0 162.268L21.1419 140.093C38.1932 158.076 60.0926 166.713 84.2095 167.06C101.867 167.313 126.39 160.666 125.887 140.543C125.433 121.715 99.9041 117.318 84.5126 113.221L78.0529 133.951C65.0372 130.904 52.9236 127.311 41.3748 121.415C24.172 112.628 14.6341 95.4972 16.5003 76.4168C19.9299 41.7532 52.3727 26.872 83.8583 24.7247L91.3716 0L122.052 0.197688L114.683 26.1153C132.795 30.8599 153.737 39.1014 166.904 54.1871L146.568 75.7147C128.249 58.9861 105.248 50.69 81.3309 53.1918C65.1887 54.8415 48.3854 62.8786 49.9004 80.5615C51.264 96.0425 75.2776 101.339 89.0026 104.434L95.056 84.7538C114.38 88.7008 144.853 97.5899 154.439 117.168Z" fill="white"/>
<path d="M606.167 189.583L575.79 190.088L540.524 136.998L523.218 154.027L523.17 189.883L498.192 189.938V27.3221L523.115 27.2199L523.473 122.962L572.361 73.6699L604.246 74.2152L558.89 120.065L606.167 189.583Z" fill="white"/>
<path d="M329.924 83.6564C318.871 73.4175 303.892 69.5728 288.852 70.2204C267.91 71.168 249.901 82.259 240.714 100.883C230.171 122.26 230.873 147.68 243.689 167.906C254.591 185.037 273.557 193.026 293.638 193.23C316.391 193.428 336.624 182.439 346.465 161.069L324.263 152.575C318.512 165.711 308.32 171.055 296.007 171.9C275.32 173.346 258.62 158.117 258.365 137.189L347.973 137.141C350.143 117.311 344.847 97.3856 329.91 83.6496L329.924 83.6564ZM259.439 118.715C261.457 106.329 269.528 96.9425 279.169 93.0432C291.276 88.101 304.195 90.3983 313.678 98.6876C319.181 103.48 321.956 109.574 323.216 118.565L259.439 118.715Z" fill="white"/>
<path d="M464.84 89.1505C453.636 75.3669 436.233 69.3203 418.473 70.2747C397.737 71.3245 380.328 82.0133 370.741 100.194C361.658 117.277 360.804 137.605 367.209 155.778C375.583 179.399 397.179 192.835 422.054 193.237C445.413 193.639 465.949 183.046 476.244 161.123L454.249 152.581C447.94 166.119 436.743 171.812 423.273 172.009C403.143 172.309 387.6 156.576 388.406 137.148L477.815 137.196C479.681 119.915 475.845 102.736 464.847 89.1505H464.84ZM388.86 118.667C391.587 104.782 401.476 94.0927 414.947 91.1956C433.768 87.2486 451.625 99.7848 452.94 118.667H388.86Z" fill="white"/>
<path d="M213.326 27.1721H188.149V189.986H213.326V27.1721Z" fill="white"/>
<path d="M825.531 325.316C829.463 290.155 808.025 258.443 770.279 258.238C746.265 258.136 725.73 271.027 716.447 292.95C709.636 309.181 709.333 327.361 715.338 343.994C723.967 368.017 746.114 381.555 771.443 381.303C794.148 381.105 813.975 370.614 824.071 349.189L801.868 340.797C795.663 354.383 784.562 360.027 771.443 360.027C751.21 360.627 735.316 344.696 736.48 325.268L825.531 325.316ZM772.655 278.621C787.234 280.72 798.893 290.059 800.759 306.74L736.735 306.788C739.813 289.057 754.95 277.223 772.655 278.621Z" fill="white"/>
<path d="M495.303 265.935C475.27 255.144 451.153 255.648 431.733 267.332C406.604 282.418 399.338 315.48 408.325 342.25C416.093 365.522 436.884 379.906 461.456 381.255C489.002 382.755 513.477 367.22 521.652 340.354C530.081 312.637 521.349 279.923 495.317 265.935H495.303ZM497.776 334.703C493.637 348.685 481.881 357.976 468.969 359.278C454.638 360.778 441.119 354.281 434.309 341.547C428.303 330.361 427.752 317.225 431.03 305.139C434.715 291.505 446.167 282.214 458.88 280.216C473.562 277.919 487.838 284.463 494.752 297.299C500.909 308.738 501.611 321.874 497.782 334.71L497.776 334.703Z" fill="white"/>
<path d="M277.039 378.106L252.365 377.956L252.061 304.088C252.013 296.099 247.62 287.66 241.112 283.658C226.684 274.919 207.409 281.313 200.797 297.047C197.568 304.586 197.113 312.132 197.065 319.672L197.017 378.003L172.246 377.853L172.197 261.933L195.66 261.735L196.466 276.869C211.906 253.194 249.093 253.248 264.781 269.929C272.756 278.321 276.943 290.005 276.943 301.846L277.046 378.113L277.039 378.106Z" fill="white"/>
<path d="M915.443 375.461C888.551 388.195 848.284 380.158 837.892 349.141L859.737 340.3C866.396 360.178 893.337 366.074 906.814 355.331C910.147 352.686 911.607 347.437 910.849 343.292C907.771 325.664 870.735 331.704 851.211 313.775C843.292 306.536 841.425 296.092 843.539 285.458C848.739 259.888 887.634 251.599 913.418 264.033C922.198 268.28 929.009 275.172 931.53 284.163L911.042 292.602C907.461 286.208 903.474 282.111 897.221 280.066C884.756 275.921 867.202 280.066 866.844 291.505C866.189 311.13 914.678 305.036 929.608 325.964C941.77 343.047 935.008 366.17 915.429 375.461H915.443Z" fill="white"/>
<path d="M699.698 346.394C692.081 368.569 671.697 380.608 649.191 381.358C617.658 382.36 591.826 360.927 587.887 329.965C585.463 310.64 589.705 291.157 603.278 276.624C618.518 260.243 641.527 255.001 663.268 260.243C680.071 264.285 693.741 275.424 699.491 292.159L677.743 300.748C674.114 294.109 670.43 287.51 663.77 283.965C646.113 274.626 625.019 281.266 616.597 299.399C610.392 312.882 610.592 329.318 618.009 342.652C624.82 354.786 636.679 360.232 649.591 359.53C662.152 358.882 672.248 350.839 677.799 338.152L699.698 346.394Z" fill="white"/>
<path d="M402.114 262.036L356.352 377.908H330.162L284.153 261.94L310.99 261.64L343.233 347.989L375.876 261.838L402.114 262.036Z" fill="white"/>
<path d="M143.329 215.19H118V378.256H143.329V215.19Z" fill="white"/>
<path d="M568.866 261.688H544.143V378.106H568.866V261.688Z" fill="white"/>
<path d="M572.75 227.979C572.75 236.82 565.485 244.012 556.553 244.012C547.621 244.012 540.411 236.82 540.411 227.979C540.411 219.137 547.628 212 556.553 212C565.478 212 572.75 219.144 572.75 227.979Z" fill="white"/>
</svg>
